0
SECTION
2
HEADER
9
$INSUNITS
70
4
0
ENDSEC
0
SECTION
2
TABLES
0
TABLE
2
LTYPE
0
LTYPE
72
65
70
64
2
CONTINUOUS
3
______
73
0
40
0
0
ENDTAB
0
TABLE
2
LAYER
0
ENDTAB
0
ENDSEC
0
SECTION
2
ENTITIES
0
LINE
8
0
10
98.275
20
-66.3425
11
111.275
21
-66.3425
0
LINE
8
0
10
98.275
20
-80.3425
11
111.275
21
-80.3425
0
LINE
8
0
10
97.775
20
-66.8425
11
97.775
21
-79.8425
0
LINE
8
0
10
111.775
20
-66.8425
11
111.775
21
-79.8425
0
ARC
8
0
10
98.275
20
-66.8425
40
0.5
50
90
51
180
0
ARC
8
0
10
111.275
20
-66.8425
40
0.5
50
0
51
90
0
ARC
8
0
10
98.275
20
-79.8425
40
0.5
50
180
51
270
0
ARC
8
0
10
111.275
20
-79.8425
40
0.5
50
270
51
0
0
LINE
8
0
10
7.1607083
20
-2.3058909
11
20.1112393
21
-3.4389155
0
LINE
8
0
10
5.9405279
20
-16.2526167
11
18.8910589
21
-17.3856413
0
LINE
8
0
10
6.619033
20
-2.7604104
11
5.4860084
21
-15.7109414
0
LINE
8
0
10
20.5657588
20
-3.9805908
11
19.4327342
21
-16.9311218
0
ARC
8
0
10
7.1171304
20
-2.8039882
40
0.5
50
85
51
175
0
ARC
8
0
10
20.0676615
20
-3.9370129
40
0.5
50
355
51
85
0
ARC
8
0
10
5.9841057
20
-15.7545193
40
0.5
50
175
51
265
0
ARC
8
0
10
18.9346368
20
-16.887544
40
0.5
50
265
51
355
0
LINE
8
0
10
26.1382173
20
-3.9662078
11
39.0887483
21
-5.0992324
0
LINE
8
0
10
24.9180369
20
-17.9129336
11
37.8685679
21
-19.0459582
0
LINE
8
0
10
25.596542
20
-4.4207273
11
24.4635174
21
-17.3712583
0
LINE
8
0
10
39.5432678
20
-5.6409077
11
38.4102432
21
-18.5914387
0
ARC
8
0
10
26.0946394
20
-4.4643051
40
0.5
50
85
51
175
0
ARC
8
0
10
39.0451705
20
-5.5973298
40
0.5
50
355
51
85
0
ARC
8
0
10
24.9616147
20
-17.4148362
40
0.5
50
175
51
265
0
ARC
8
0
10
37.9121458
20
-18.5478609
40
0.5
50
265
51
355
0
LINE
8
0
10
45.1157263
20
-5.6265247
11
58.0662573
21
-6.7595493
0
LINE
8
0
10
43.8955459
20
-19.5732505
11
56.8460769
21
-20.7062751
0
LINE
8
0
10
44.574051
20
-6.0810442
11
43.4410264
21
-19.0315752
0
LINE
8
0
10
58.5207768
20
-7.3012246
11
57.3877522
21
-20.2517556
0
ARC
8
0
10
45.0721484
20
-6.124622
40
0.5
50
85
51
175
0
ARC
8
0
10
58.0226795
20
-7.2576467
40
0.5
50
355
51
85
0
ARC
8
0
10
43.9391237
20
-19.0751531
40
0.5
50
175
51
265
0
ARC
8
0
10
56.8896548
20
-20.2081778
40
0.5
50
265
51
355
0
LINE
8
0
10
64.0932353
20
-7.2868416
11
77.0437663
21
-8.4198662
0
LINE
8
0
10
62.8730549
20
-21.2335674
11
75.8235859
21
-22.366592
0
LINE
8
0
10
63.55156
20
-7.7413611
11
62.4185354
21
-20.6918921
0
LINE
8
0
10
77.4982858
20
-8.9615415
11
76.3652612
21
-21.9120725
0
ARC
8
0
10
64.0496574
20
-7.7849389
40
0.5
50
85
51
175
0
ARC
8
0
10
77.0001885
20
-8.9179636
40
0.5
50
355
51
85
0
ARC
8
0
10
62.9166327
20
-20.73547
40
0.5
50
175
51
265
0
ARC
8
0
10
75.8671638
20
-21.8684947
40
0.5
50
265
51
355
0
LINE
8
0
10
83.0707443
20
-8.9471584
11
96.0212753
21
-10.080183
0
LINE
8
0
10
81.8505639
20
-22.8938842
11
94.8010949
21
-24.0269088
0
LINE
8
0
10
82.529069
20
-9.4016779
11
81.3960444
21
-22.3522089
0
LINE
8
0
10
96.4757948
20
-10.6218583
11
95.3427702
21
-23.5723893
0
ARC
8
0
10
83.0271664
20
-9.4452557
40
0.5
50
85
51
175
0
ARC
8
0
10
95.9776975
20
-10.5782804
40
0.5
50
355
51
85
0
ARC
8
0
10
81.8941417
20
-22.3957868
40
0.5
50
175
51
265
0
ARC
8
0
10
94.8446728
20
-23.5288115
40
0.5
50
265
51
355
0
LINE
8
0
10
5.5003914
20
-21.2833999
11
18.4509224
21
-22.4164245
0
LINE
8
0
10
4.280211
20
-35.2301257
11
17.230742
21
-36.3631503
0
LINE
8
0
10
4.9587161
20
-21.7379194
11
3.8256915
21
-34.6884504
0
LINE
8
0
10
18.9054419
20
-22.9580998
11
17.7724173
21
-35.9086308
0
ARC
8
0
10
5.4568135
20
-21.7814972
40
0.5
50
85
51
175
0
ARC
8
0
10
18.4073446
20
-22.9145219
40
0.5
50
355
51
85
0
ARC
8
0
10
4.3237888
20
-34.7320283
40
0.5
50
175
51
265
0
ARC
8
0
10
17.2743199
20
-35.865053
40
0.5
50
265
51
355
0
LINE
8
0
10
24.4779004
20
-22.9437168
11
37.4284314
21
-24.0767414
0
LINE
8
0
10
23.25772
20
-36.8904426
11
36.208251
21
-38.0234672
0
LINE
8
0
10
23.9362251
20
-23.3982363
11
22.8032005
21
-36.3487673
0
LINE
8
0
10
37.8829509
20
-24.6184167
11
36.7499263
21
-37.5689477
0
ARC
8
0
10
24.4343225
20
-23.4418141
40
0.5
50
85
51
175
0
ARC
8
0
10
37.3848536
20
-24.5748388
40
0.5
50
355
51
85
0
ARC
8
0
10
23.3012978
20
-36.3923452
40
0.5
50
175
51
265
0
ARC
8
0
10
36.2518289
20
-37.5253699
40
0.5
50
265
51
355
0
LINE
8
0
10
43.4554094
20
-24.6040336
11
56.4059404
21
-25.7370582
0
LINE
8
0
10
42.235229
20
-38.5507594
11
55.18576
21
-39.683784
0
LINE
8
0
10
42.9137341
20
-25.0585531
11
41.7807095
21
-38.0090841
0
LINE
8
0
10
56.8604599
20
-26.2787335
11
55.7274353
21
-39.2292645
0
ARC
8
0
10
43.4118315
20
-25.1021309
40
0.5
50
85
51
175
0
ARC
8
0
10
56.3623626
20
-26.2351556
40
0.5
50
355
51
85
0
ARC
8
0
10
42.2788068
20
-38.052662
40
0.5
50
175
51
265
0
ARC
8
0
10
55.2293379
20
-39.1856867
40
0.5
50
265
51
355
0
LINE
8
0
10
62.4329184
20
-26.2643505
11
75.3834494
21
-27.3973751
0
LINE
8
0
10
61.212738
20
-40.2110763
11
74.163269
21
-41.3441009
0
LINE
8
0
10
61.8912431
20
-26.71887
11
60.7582185
21
-39.669401
0
LINE
8
0
10
75.8379689
20
-27.9390504
11
74.7049443
21
-40.8895814
0
ARC
8
0
10
62.3893405
20
-26.7624478
40
0.5
50
85
51
175
0
ARC
8
0
10
75.3398716
20
-27.8954725
40
0.5
50
355
51
85
0
ARC
8
0
10
61.2563158
20
-39.7129789
40
0.5
50
175
51
265
0
ARC
8
0
10
74.2068469
20
-40.8460036
40
0.5
50
265
51
355
0
LINE
8
0
10
81.4104274
20
-27.9246674
11
94.3609584
21
-29.057692
0
LINE
8
0
10
80.190247
20
-41.8713932
11
93.140778
21
-43.0044178
0
LINE
8
0
10
80.8687521
20
-28.3791869
11
79.7357275
21
-41.3297179
0
LINE
8
0
10
94.8154779
20
-29.5993673
11
93.6824533
21
-42.5498983
0
ARC
8
0
10
81.3668495
20
-28.4227647
40
0.5
50
85
51
175
0
ARC
8
0
10
94.3173806
20
-29.5557894
40
0.5
50
355
51
85
0
ARC
8
0
10
80.2338248
20
-41.3732958
40
0.5
50
175
51
265
0
ARC
8
0
10
93.1843559
20
-42.5063205
40
0.5
50
265
51
355
0
LINE
8
0
10
3.8400745
20
-40.2609088
11
16.7906055
21
-41.3939334
0
LINE
8
0
10
2.6198941
20
-54.2076346
11
15.5704251
21
-55.3406592
0
LINE
8
0
10
3.2983992
20
-40.7154283
11
2.1653746
21
-53.6659593
0
LINE
8
0
10
17.245125
20
-41.9356087
11
16.1121004
21
-54.8861397
0
ARC
8
0
10
3.7964966
20
-40.7590061
40
0.5
50
85
51
175
0
ARC
8
0
10
16.7470277
20
-41.8920308
40
0.5
50
355
51
85
0
ARC
8
0
10
2.6634719
20
-53.7095372
40
0.5
50
175
51
265
0
ARC
8
0
10
15.614003
20
-54.8425619
40
0.5
50
265
51
355
0
LINE
8
0
10
22.8175835
20
-41.9212257
11
35.7681145
21
-43.0542503
0
LINE
8
0
10
21.5974031
20
-55.8679515
11
34.5479341
21
-57.0009761
0
LINE
8
0
10
22.2759082
20
-42.3757452
11
21.1428836
21
-55.3262762
0
LINE
8
0
10
36.222634
20
-43.5959256
11
35.0896094
21
-56.5464566
0
ARC
8
0
10
22.7740056
20
-42.419323
40
0.5
50
85
51
175
0
ARC
8
0
10
35.7245367
20
-43.5523477
40
0.5
50
355
51
85
0
ARC
8
0
10
21.6409809
20
-55.3698541
40
0.5
50
175
51
265
0
ARC
8
0
10
34.591512
20
-56.5028788
40
0.5
50
265
51
355
0
LINE
8
0
10
41.7950925
20
-43.5815426
11
54.7456235
21
-44.7145672
0
LINE
8
0
10
40.5749121
20
-57.5282684
11
53.5254431
21
-58.661293
0
LINE
8
0
10
41.2534172
20
-44.0360621
11
40.1203926
21
-56.9865931
0
LINE
8
0
10
55.200143
20
-45.2562425
11
54.0671184
21
-58.2067735
0
ARC
8
0
10
41.7515146
20
-44.0796399
40
0.5
50
85
51
175
0
ARC
8
0
10
54.7020457
20
-45.2126646
40
0.5
50
355
51
85
0
ARC
8
0
10
40.6184899
20
-57.030171
40
0.5
50
175
51
265
0
ARC
8
0
10
53.569021
20
-58.1631957
40
0.5
50
265
51
355
0
LINE
8
0
10
60.7726015
20
-45.2418595
11
73.7231325
21
-46.3748841
0
LINE
8
0
10
59.5524211
20
-59.1885853
11
72.5029521
21
-60.3216099
0
LINE
8
0
10
60.2309262
20
-45.696379
11
59.0979016
21
-58.64691
0
LINE
8
0
10
74.177652
20
-46.9165594
11
73.0446274
21
-59.8670904
0
ARC
8
0
10
60.7290236
20
-45.7399568
40
0.5
50
85
51
175
0
ARC
8
0
10
73.6795547
20
-46.8729815
40
0.5
50
355
51
85
0
ARC
8
0
10
59.5959989
20
-58.6904879
40
0.5
50
175
51
265
0
ARC
8
0
10
72.54653
20
-59.8235126
40
0.5
50
265
51
355
0
LINE
8
0
10
79.7501105
20
-46.9021764
11
92.7006415
21
-48.035201
0
LINE
8
0
10
78.5299301
20
-60.8489022
11
91.4804611
21
-61.9819268
0
LINE
8
0
10
79.2084352
20
-47.3566959
11
78.0754106
21
-60.3072269
0
LINE
8
0
10
93.155161
20
-48.5768763
11
92.0221364
21
-61.5274073
0
ARC
8
0
10
79.7065326
20
-47.4002737
40
0.5
50
85
51
175
0
ARC
8
0
10
92.6570637
20
-48.5332984
40
0.5
50
355
51
85
0
ARC
8
0
10
78.5735079
20
-60.3508048
40
0.5
50
175
51
265
0
ARC
8
0
10
91.524039
20
-61.4838295
40
0.5
50
265
51
355
0
LINE
8
0
10
11.6685121
20
-60.0685763
11
24.6190431
21
-61.2016009
0
LINE
8
0
10
10.4483317
20
-74.0153021
11
23.3988627
21
-75.1483267
0
LINE
8
0
10
11.1268368
20
-60.5230958
11
9.9938122
21
-73.4736268
0
LINE
8
0
10
25.0735626
20
-61.7432762
11
23.940538
21
-74.6938072
0
ARC
8
0
10
11.6249342
20
-60.5666736
40
0.5
50
85
51
175
0
ARC
8
0
10
24.5754653
20
-61.6996983
40
0.5
50
355
51
85
0
ARC
8
0
10
10.4919095
20
-73.5172047
40
0.5
50
175
51
265
0
ARC
8
0
10
23.4424406
20
-74.6502294
40
0.5
50
265
51
355
0
LINE
8
0
10
42.5069642
20
-62.7665913
11
55.4574952
21
-63.8996159
0
LINE
8
0
10
41.2867838
20
-76.7133171
11
54.2373148
21
-77.8463417
0
LINE
8
0
10
41.9652889
20
-63.2211108
11
40.8322643
21
-76.1716418
0
LINE
8
0
10
55.9120147
20
-64.4412912
11
54.7789901
21
-77.3918222
0
ARC
8
0
10
42.4633863
20
-63.2646886
40
0.5
50
85
51
175
0
ARC
8
0
10
55.4139174
20
-64.3977133
40
0.5
50
355
51
85
0
ARC
8
0
10
41.3303616
20
-76.2152197
40
0.5
50
175
51
265
0
ARC
8
0
10
54.2808927
20
-77.3482444
40
0.5
50
265
51
355
0
LINE
8
0
10
70.9732277
20
-65.2570666
11
83.9237587
21
-66.3900912
0
LINE
8
0
10
69.7530473
20
-79.2037924
11
82.7035783
21
-80.336817
0
LINE
8
0
10
70.4315524
20
-65.7115861
11
69.2985278
21
-78.6621171
0
LINE
8
0
10
84.3782782
20
-66.9317665
11
83.2452536
21
-79.8822975
0
ARC
8
0
10
70.9296498
20
-65.7551639
40
0.5
50
85
51
175
0
ARC
8
0
10
83.8801809
20
-66.8881886
40
0.5
50
355
51
85
0
ARC
8
0
10
69.7966251
20
-78.705695
40
0.5
50
175
51
265
0
ARC
8
0
10
82.7471562
20
-79.8387197
40
0.5
50
265
51
355
0
LINE
8
0
10
113.3884137
20
-9.724032
11
126.3389447
21
-8.5910074
0
LINE
8
0
10
114.6085941
20
-23.6707578
11
127.5591251
21
-22.5377332
0
LINE
8
0
10
112.9338942
20
-10.2657073
11
114.0669188
21
-23.2162383
0
LINE
8
0
10
126.88062
20
-9.0455269
11
128.0136446
21
-21.9960579
0
ARC
8
0
10
113.4319915
20
-10.2221294
40
0.5
50
95
51
185
0
ARC
8
0
10
126.3825226
20
-9.0891047
40
0.5
50
5
51
95
0
ARC
8
0
10
114.5650162
20
-23.1726605
40
0.5
50
185
51
275
0
ARC
8
0
10
127.5155473
20
-22.0396358
40
0.5
50
275
51
5
0
LINE
8
0
10
132.3659227
20
-8.0637151
11
145.3164537
21
-6.9306905
0
LINE
8
0
10
133.5861031
20
-22.0104409
11
146.5366341
21
-20.8774163
0
LINE
8
0
10
131.9114032
20
-8.6053904
11
133.0444278
21
-21.5559214
0
LINE
8
0
10
145.858129
20
-7.38521
11
146.9911536
21
-20.335741
0
ARC
8
0
10
132.4095005
20
-8.5618125
40
0.5
50
95
51
185
0
ARC
8
0
10
145.3600316
20
-7.4287878
40
0.5
50
5
51
95
0
ARC
8
0
10
133.5425252
20
-21.5123436
40
0.5
50
185
51
275
0
ARC
8
0
10
146.4930563
20
-20.3793189
40
0.5
50
275
51
5
0
LINE
8
0
10
151.3434317
20
-6.4033983
11
164.2939627
21
-5.2703737
0
LINE
8
0
10
152.5636121
20
-20.3501241
11
165.5141431
21
-19.2170995
0
LINE
8
0
10
150.8889122
20
-6.9450736
11
152.0219368
21
-19.8956046
0
LINE
8
0
10
164.835638
20
-5.7248932
11
165.9686626
21
-18.6754242
0
ARC
8
0
10
151.3870095
20
-6.9014957
40
0.5
50
95
51
185
0
ARC
8
0
10
164.3375406
20
-5.768471
40
0.5
50
5
51
95
0
ARC
8
0
10
152.5200342
20
-19.8520268
40
0.5
50
185
51
275
0
ARC
8
0
10
165.4705653
20
-18.7190021
40
0.5
50
275
51
5
0
LINE
8
0
10
170.3209407
20
-4.7430814
11
183.2714717
21
-3.6100568
0
LINE
8
0
10
171.5411211
20
-18.6898072
11
184.4916521
21
-17.5567826
0
LINE
8
0
10
169.8664212
20
-5.2847567
11
170.9994458
21
-18.2352877
0
LINE
8
0
10
183.813147
20
-4.0645763
11
184.9461716
21
-17.0151073
0
ARC
8
0
10
170.3645185
20
-5.2411788
40
0.5
50
95
51
185
0
ARC
8
0
10
183.3150496
20
-4.1081541
40
0.5
50
5
51
95
0
ARC
8
0
10
171.4975432
20
-18.1917099
40
0.5
50
185
51
275
0
ARC
8
0
10
184.4480743
20
-17.0586852
40
0.5
50
275
51
5
0
LINE
8
0
10
189.2984497
20
-3.0827645
11
202.2489807
21
-1.9497399
0
LINE
8
0
10
190.5186301
20
-17.0294903
11
203.4691611
21
-15.8964657
0
LINE
8
0
10
188.8439302
20
-3.6244398
11
189.9769548
21
-16.5749708
0
LINE
8
0
10
202.790656
20
-2.4042594
11
203.9236806
21
-15.3547904
0
ARC
8
0
10
189.3420275
20
-3.5808619
40
0.5
50
95
51
185
0
ARC
8
0
10
202.2925586
20
-2.4478372
40
0.5
50
5
51
95
0
ARC
8
0
10
190.4750522
20
-16.531393
40
0.5
50
185
51
275
0
ARC
8
0
10
203.4255833
20
-15.3983683
40
0.5
50
275
51
5
0
LINE
8
0
10
115.0487306
20
-28.701541
11
127.9992616
21
-27.5685164
0
LINE
8
0
10
116.268911
20
-42.6482668
11
129.219442
21
-41.5152422
0
LINE
8
0
10
114.5942111
20
-29.2432163
11
115.7272357
21
-42.1937473
0
LINE
8
0
10
128.5409369
20
-28.0230359
11
129.6739615
21
-40.9735669
0
ARC
8
0
10
115.0923084
20
-29.1996384
40
0.5
50
95
51
185
0
ARC
8
0
10
128.0428395
20
-28.0666137
40
0.5
50
5
51
95
0
ARC
8
0
10
116.2253331
20
-42.1501695
40
0.5
50
185
51
275
0
ARC
8
0
10
129.1758642
20
-41.0171448
40
0.5
50
275
51
5
0
LINE
8
0
10
134.0262396
20
-27.0412241
11
146.9767706
21
-25.9081995
0
LINE
8
0
10
135.24642
20
-40.9879499
11
148.196951
21
-39.8549253
0
LINE
8
0
10
133.5717201
20
-27.5828994
11
134.7047447
21
-40.5334304
0
LINE
8
0
10
147.5184459
20
-26.362719
11
148.6514705
21
-39.31325
0
ARC
8
0
10
134.0698174
20
-27.5393215
40
0.5
50
95
51
185
0
ARC
8
0
10
147.0203485
20
-26.4062968
40
0.5
50
5
51
95
0
ARC
8
0
10
135.2028421
20
-40.4898526
40
0.5
50
185
51
275
0
ARC
8
0
10
148.1533732
20
-39.3568279
40
0.5
50
275
51
5
0
LINE
8
0
10
153.0037486
20
-25.3809072
11
165.9542796
21
-24.2478826
0
LINE
8
0
10
154.223929
20
-39.327633
11
167.17446
21
-38.1946084
0
LINE
8
0
10
152.5492291
20
-25.9225825
11
153.6822537
21
-38.8731135
0
LINE
8
0
10
166.4959549
20
-24.7024021
11
167.6289795
21
-37.6529331
0
ARC
8
0
10
153.0473264
20
-25.8790046
40
0.5
50
95
51
185
0
ARC
8
0
10
165.9978575
20
-24.7459799
40
0.5
50
5
51
95
0
ARC
8
0
10
154.1803511
20
-38.8295357
40
0.5
50
185
51
275
0
ARC
8
0
10
167.1308822
20
-37.696511
40
0.5
50
275
51
5
0
LINE
8
0
10
171.9812576
20
-23.7205903
11
184.9317886
21
-22.5875657
0
LINE
8
0
10
173.201438
20
-37.6673161
11
186.151969
21
-36.5342915
0
LINE
8
0
10
171.5267381
20
-24.2622656
11
172.6597627
21
-37.2127966
0
LINE
8
0
10
185.4734639
20
-23.0420852
11
186.6064885
21
-35.9926162
0
ARC
8
0
10
172.0248354
20
-24.2186877
40
0.5
50
95
51
185
0
ARC
8
0
10
184.9753665
20
-23.085663
40
0.5
50
5
51
95
0
ARC
8
0
10
173.1578601
20
-37.1692188
40
0.5
50
185
51
275
0
ARC
8
0
10
186.1083912
20
-36.0361941
40
0.5
50
275
51
5
0
LINE
8
0
10
190.9587666
20
-22.0602735
11
203.9092976
21
-20.9272489
0
LINE
8
0
10
192.178947
20
-36.0069993
11
205.129478
21
-34.8739747
0
LINE
8
0
10
190.5042471
20
-22.6019488
11
191.6372717
21
-35.5524798
0
LINE
8
0
10
204.4509729
20
-21.3817684
11
205.5839975
21
-34.3322994
0
ARC
8
0
10
191.0023444
20
-22.5583709
40
0.5
50
95
51
185
0
ARC
8
0
10
203.9528755
20
-21.4253462
40
0.5
50
5
51
95
0
ARC
8
0
10
192.1353691
20
-35.508902
40
0.5
50
185
51
275
0
ARC
8
0
10
205.0859002
20
-34.3758773
40
0.5
50
275
51
5
0
LINE
8
0
10
116.7090475
20
-47.67905
11
129.6595785
21
-46.5460254
0
LINE
8
0
10
117.9292279
20
-61.6257758
11
130.8797589
21
-60.4927512
0
LINE
8
0
10
116.254528
20
-48.2207253
11
117.3875526
21
-61.1712563
0
LINE
8
0
10
130.2012538
20
-47.0005449
11
131.3342784
21
-59.9510759
0
ARC
8
0
10
116.7526253
20
-48.1771474
40
0.5
50
95
51
185
0
ARC
8
0
10
129.7031564
20
-47.0441227
40
0.5
50
5
51
95
0
ARC
8
0
10
117.88565
20
-61.1276785
40
0.5
50
185
51
275
0
ARC
8
0
10
130.8361811
20
-59.9946538
40
0.5
50
275
51
5
0
LINE
8
0
10
135.6865565
20
-46.0187331
11
148.6370875
21
-44.8857085
0
LINE
8
0
10
136.9067369
20
-59.9654589
11
149.8572679
21
-58.8324343
0
LINE
8
0
10
135.232037
20
-46.5604084
11
136.3650616
21
-59.5109394
0
LINE
8
0
10
149.1787628
20
-45.340228
11
150.3117874
21
-58.290759
0
ARC
8
0
10
135.7301343
20
-46.5168305
40
0.5
50
95
51
185
0
ARC
8
0
10
148.6806654
20
-45.3838058
40
0.5
50
5
51
95
0
ARC
8
0
10
136.863159
20
-59.4673616
40
0.5
50
185
51
275
0
ARC
8
0
10
149.8136901
20
-58.3343369
40
0.5
50
275
51
5
0
LINE
8
0
10
154.6640655
20
-44.3584162
11
167.6145965
21
-43.2253916
0
LINE
8
0
10
155.8842459
20
-58.305142
11
168.8347769
21
-57.1721174
0
LINE
8
0
10
154.209546
20
-44.9000915
11
155.3425706
21
-57.8506225
0
LINE
8
0
10
168.1562718
20
-43.6799111
11
169.2892964
21
-56.6304421
0
ARC
8
0
10
154.7076433
20
-44.8565136
40
0.5
50
95
51
185
0
ARC
8
0
10
167.6581744
20
-43.7234889
40
0.5
50
5
51
95
0
ARC
8
0
10
155.840668
20
-57.8070447
40
0.5
50
185
51
275
0
ARC
8
0
10
168.7911991
20
-56.67402
40
0.5
50
275
51
5
0
LINE
8
0
10
173.6415745
20
-42.6980993
11
186.5921055
21
-41.5650747
0
LINE
8
0
10
174.8617549
20
-56.6448251
11
187.8122859
21
-55.5118005
0
LINE
8
0
10
173.187055
20
-43.2397746
11
174.3200796
21
-56.1903056
0
LINE
8
0
10
187.1337808
20
-42.0195942
11
188.2668054
21
-54.9701252
0
ARC
8
0
10
173.6851523
20
-43.1961967
40
0.5
50
95
51
185
0
ARC
8
0
10
186.6356834
20
-42.063172
40
0.5
50
5
51
95
0
ARC
8
0
10
174.818177
20
-56.1467278
40
0.5
50
185
51
275
0
ARC
8
0
10
187.7687081
20
-55.0137031
40
0.5
50
275
51
5
0
LINE
8
0
10
192.6190835
20
-41.0377824
11
205.5696145
21
-39.9047578
0
LINE
8
0
10
193.8392639
20
-54.9845082
11
206.7897949
21
-53.8514836
0
LINE
8
0
10
192.164564
20
-41.5794577
11
193.2975886
21
-54.5299887
0
LINE
8
0
10
206.1112898
20
-40.3592773
11
207.2443144
21
-53.3098083
0
ARC
8
0
10
192.6626613
20
-41.5358798
40
0.5
50
95
51
185
0
ARC
8
0
10
205.6131924
20
-40.4028551
40
0.5
50
5
51
95
0
ARC
8
0
10
193.795686
20
-54.4864109
40
0.5
50
185
51
275
0
ARC
8
0
10
206.7462171
20
-53.3533862
40
0.5
50
275
51
5
0
LINE
8
0
10
127.8581189
20
-65.8264006
11
140.8086499
21
-64.693376
0
LINE
8
0
10
129.0782993
20
-79.7731264
11
142.0288303
21
-78.6401018
0
LINE
8
0
10
127.4035994
20
-66.3680759
11
128.536624
21
-79.3186069
0
LINE
8
0
10
141.3503252
20
-65.1478955
11
142.4833498
21
-78.0984265
0
ARC
8
0
10
127.9016967
20
-66.324498
40
0.5
50
95
51
185
0
ARC
8
0
10
140.8522278
20
-65.1914733
40
0.5
50
5
51
95
0
ARC
8
0
10
129.0347214
20
-79.2750291
40
0.5
50
185
51
275
0
ARC
8
0
10
141.9852525
20
-78.1420044
40
0.5
50
275
51
5
0
LINE
8
0
10
119.5393837
20
-67.5580155
11
125.5165519
21
-67.035081
0
LINE
8
0
10
120.8467199
20
-82.500936
11
126.8238881
21
-81.9780015
0
LINE
8
0
10
119.0848643
20
-68.0996907
11
120.3050447
21
-82.0464165
0
LINE
8
0
10
126.0582272
20
-67.4896005
11
127.2784076
21
-81.4363263
0
ARC
8
0
10
119.5829616
20
-68.0561128
40
0.5
50
95
51
185
0
ARC
8
0
10
125.5601298
20
-67.5331784
40
0.5
50
5
51
95
0
ARC
8
0
10
120.803142
20
-82.0028386
40
0.5
50
185
51
275
0
ARC
8
0
10
126.7803102
20
-81.4799042
40
0.5
50
275
51
5
0
LINE
8
0
10
143.3245284
20
-65.477085
11
149.3016965
21
-64.9541505
0
LINE
8
0
10
144.6318645
20
-80.4200055
11
150.6090327
21
-79.897071
0
LINE
8
0
10
142.8700089
20
-66.0187602
11
144.0901893
21
-79.965486
0
LINE
8
0
10
149.8433718
20
-65.40867
11
151.0635522
21
-79.3553958
0
ARC
8
0
10
143.3681062
20
-65.9751823
40
0.5
50
95
51
185
0
ARC
8
0
10
149.3452744
20
-65.4522479
40
0.5
50
5
51
95
0
ARC
8
0
10
144.5882866
20
-79.9219081
40
0.5
50
185
51
275
0
ARC
8
0
10
150.5654548
20
-79.3989736
40
0.5
50
275
51
5
0
LINE
8
0
10
156.3243824
20
-63.3359252
11
169.2749134
21
-62.2029006
0
LINE
8
0
10
157.5445628
20
-77.282651
11
170.4950938
21
-76.1496264
0
LINE
8
0
10
155.8698629
20
-63.8776005
11
157.0028875
21
-76.8281315
0
LINE
8
0
10
169.8165887
20
-62.6574201
11
170.9496133
21
-75.6079511
0
ARC
8
0
10
156.3679602
20
-63.8340226
40
0.5
50
95
51
185
0
ARC
8
0
10
169.3184913
20
-62.7009979
40
0.5
50
5
51
95
0
ARC
8
0
10
157.5009849
20
-76.7845537
40
0.5
50
185
51
275
0
ARC
8
0
10
170.451516
20
-75.651529
40
0.5
50
275
51
5
0
LINE
8
0
10
175.3018914
20
-61.6756083
11
188.2524224
21
-60.5425837
0
LINE
8
0
10
176.5220718
20
-75.6223341
11
189.4726028
21
-74.4893095
0
LINE
8
0
10
174.8473719
20
-62.2172836
11
175.9803965
21
-75.1678146
0
LINE
8
0
10
188.7940977
20
-60.9971032
11
189.9271223
21
-73.9476342
0
ARC
8
0
10
175.3454692
20
-62.1737057
40
0.5
50
95
51
185
0
ARC
8
0
10
188.2960003
20
-61.040681
40
0.5
50
5
51
95
0
ARC
8
0
10
176.4784939
20
-75.1242368
40
0.5
50
185
51
275
0
ARC
8
0
10
189.429025
20
-73.9912121
40
0.5
50
275
51
5
0
LINE
8
0
10
0.1802498
20
-82.8675
11
209.2294392
21
-82.8675
0
LINE
8
0
10
0.1802498
20
0.0353849
11
209.2294392
21
0.0353849
0
LINE
8
0
10
0.1802498
20
-82.8675
11
0.1802498
21
0.0353849
0
LINE
8
0
10
209.2294392
20
-82.8675
11
209.2294392
21
0.0353849
0
ENDSEC
0
EOF