  0
SECTION
  2
HEADER
  9
$ACADVER
  1
AC1009
  9
$FILLMODE
 70
 0
  9
$SPLFRAME
 70
 1
  9
$EXTMIN
 10
0
 20
0
 30
0.0
  9
$EXTMAX
 10
1058.33
 20
1058.33
 30
0.0
  0
ENDSEC
  0
SECTION
  2
TABLES
  0
TABLE
  2
LAYER
 70
1
  0
LAYER
  2
0
 70
     0
 62
     7
  6
CONTINUOUS
  0
ENDTAB
  0
ENDSEC
  0
SECTION
  2
ENTITIES
  0
LINE
  8
0
 62
     0
 10
197.12
 20
95.8603
 30
0.0
 11
198.297
 21
95.8137
 31
0.0
  0
LINE
  8
0
 62
     0
 10
198.297
 20
95.8137
 30
0.0
 11
199.465
 21
95.6758
 31
0.0
  0
LINE
  8
0
 62
     0
 10
199.465
 20
95.6758
 30
0.0
 11
200.622
 21
95.4458
 31
0.0
  0
LINE
  8
0
 62
     0
 10
200.622
 20
95.4458
 30
0.0
 11
201.754
 21
95.1258
 31
0.0
  0
LINE
  8
0
 62
     0
 10
201.754
 20
95.1258
 30
0.0
 11
202.86
 21
94.7194
 31
0.0
  0
LINE
  8
0
 62
     0
 10
202.86
 20
94.7194
 30
0.0
 11
203.929
 21
94.2262
 31
0.0
  0
LINE
  8
0
 62
     0
 10
203.929
 20
94.2262
 30
0.0
 11
204.957
 21
93.6502
 31
0.0
  0
LINE
  8
0
 62
     0
 10
204.957
 20
93.6502
 30
0.0
 11
205.937
 21
92.9954
 31
0.0
  0
LINE
  8
0
 62
     0
 10
205.937
 20
92.9954
 30
0.0
 11
206.861
 21
92.2666
 31
0.0
  0
LINE
  8
0
 62
     0
 10
206.861
 20
92.2666
 30
0.0
 11
207.727
 21
91.4672
 31
0.0
  0
LINE
  8
0
 62
     0
 10
207.727
 20
91.4672
 30
0.0
 11
208.526
 21
90.6018
 31
0.0
  0
LINE
  8
0
 62
     0
 10
208.526
 20
90.6018
 30
0.0
 11
209.255
 21
89.6772
 31
0.0
  0
LINE
  8
0
 62
     0
 10
209.255
 20
89.6772
 30
0.0
 11
209.91
 21
88.6975
 31
0.0
  0
LINE
  8
0
 62
     0
 10
209.91
 20
88.6975
 30
0.0
 11
210.484
 21
87.6695
 31
0.0
  0
LINE
  8
0
 62
     0
 10
210.484
 20
87.6695
 30
0.0
 11
210.978
 21
86.6013
 31
0.0
  0
LINE
  8
0
 62
     0
 10
210.978
 20
86.6013
 30
0.0
 11
211.386
 21
85.4964
 31
0.0
  0
LINE
  8
0
 62
     0
 10
211.386
 20
85.4964
 30
0.0
 11
211.704
 21
84.3622
 31
0.0
  0
LINE
  8
0
 62
     0
 10
211.704
 20
84.3622
 30
0.0
 11
211.934
 21
83.2072
 31
0.0
  0
LINE
  8
0
 62
     0
 10
211.934
 20
83.2072
 30
0.0
 11
212.073
 21
82.0374
 31
0.0
  0
LINE
  8
0
 62
     0
 10
212.073
 20
82.0374
 30
0.0
 11
212.12
 21
80.8605
 31
0.0
  0
LINE
  8
0
 62
     0
 10
212.12
 20
80.8605
 30
0.0
 11
212.12
 21
15.1212
 31
0.0
  0
LINE
  8
0
 62
     0
 10
212.12
 20
15.1212
 30
0.0
 11
212.073
 21
13.9444
 31
0.0
  0
LINE
  8
0
 62
     0
 10
212.073
 20
13.9444
 30
0.0
 11
211.934
 21
12.7744
 31
0.0
  0
LINE
  8
0
 62
     0
 10
211.934
 20
12.7744
 30
0.0
 11
211.704
 21
11.6196
 31
0.0
  0
LINE
  8
0
 62
     0
 10
211.704
 20
11.6196
 30
0.0
 11
211.386
 21
10.4855
 31
0.0
  0
LINE
  8
0
 62
     0
 10
211.386
 20
10.4855
 30
0.0
 11
210.978
 21
9.3817
 31
0.0
  0
LINE
  8
0
 62
     0
 10
210.978
 20
9.3817
 30
0.0
 11
210.484
 21
8.31095
 31
0.0
  0
LINE
  8
0
 62
     0
 10
210.484
 20
8.31095
 30
0.0
 11
209.91
 21
7.28292
 31
0.0
  0
LINE
  8
0
 62
     0
 10
209.91
 20
7.28292
 30
0.0
 11
209.255
 21
6.30453
 31
0.0
  0
LINE
  8
0
 62
     0
 10
209.255
 20
6.30453
 30
0.0
 11
208.526
 21
5.37849
 31
0.0
  0
LINE
  8
0
 62
     0
 10
208.526
 20
5.37849
 30
0.0
 11
207.727
 21
4.51446
 31
0.0
  0
LINE
  8
0
 62
     0
 10
207.727
 20
4.51446
 30
0.0
 11
206.861
 21
3.71521
 31
0.0
  0
LINE
  8
0
 62
     0
 10
206.861
 20
3.71521
 30
0.0
 11
205.937
 21
2.98621
 31
0.0
  0
LINE
  8
0
 62
     0
 10
205.937
 20
2.98621
 30
0.0
 11
204.957
 21
2.33164
 31
0.0
  0
LINE
  8
0
 62
     0
 10
204.957
 20
2.33164
 30
0.0
 11
203.929
 21
1.75562
 31
0.0
  0
LINE
  8
0
 62
     0
 10
203.929
 20
1.75562
 30
0.0
 11
202.86
 21
1.26366
 31
0.0
  0
LINE
  8
0
 62
     0
 10
202.86
 20
1.26366
 30
0.0
 11
201.754
 21
0.854385
 31
0.0
  0
LINE
  8
0
 62
     0
 10
201.754
 20
0.854385
 30
0.0
 11
200.622
 21
0.534681
 31
0.0
  0
LINE
  8
0
 62
     0
 10
200.622
 20
0.534681
 30
0.0
 11
199.465
 21
0.305925
 31
0.0
  0
LINE
  8
0
 62
     0
 10
199.465
 20
0.305925
 30
0.0
 11
198.297
 21
0.166743
 31
0.0
  0
LINE
  8
0
 62
     0
 10
198.297
 20
0.166743
 30
0.0
 11
197.12
 21
0.121267
 31
0.0
  0
LINE
  8
0
 62
     0
 10
197.12
 20
0.121267
 30
0.0
 11
15.095
 21
0.121267
 31
0.0
  0
LINE
  8
0
 62
     0
 10
15.095
 20
0.121267
 30
0.0
 11
13.9182
 21
0.166743
 31
0.0
  0
LINE
  8
0
 62
     0
 10
13.9182
 20
0.166743
 30
0.0
 11
12.7482
 21
0.305925
 31
0.0
  0
LINE
  8
0
 62
     0
 10
12.7482
 20
0.305925
 30
0.0
 11
11.5934
 21
0.534681
 31
0.0
  0
LINE
  8
0
 62
     0
 10
11.5934
 20
0.534681
 30
0.0
 11
10.4593
 21
0.854385
 31
0.0
  0
LINE
  8
0
 62
     0
 10
10.4593
 20
0.854385
 30
0.0
 11
9.35411
 21
1.26366
 31
0.0
  0
LINE
  8
0
 62
     0
 10
9.35411
 20
1.26366
 30
0.0
 11
8.28615
 21
1.75562
 31
0.0
  0
LINE
  8
0
 62
     0
 10
8.28615
 20
1.75562
 30
0.0
 11
7.25812
 21
2.33164
 31
0.0
  0
LINE
  8
0
 62
     0
 10
7.25812
 20
2.33164
 30
0.0
 11
6.27835
 21
2.98621
 31
0.0
  0
LINE
  8
0
 62
     0
 10
6.27835
 20
2.98621
 30
0.0
 11
5.35369
 21
3.71521
 31
0.0
  0
LINE
  8
0
 62
     0
 10
5.35369
 20
3.71521
 30
0.0
 11
4.48829
 21
4.51446
 31
0.0
  0
LINE
  8
0
 62
     0
 10
4.48829
 20
4.51446
 30
0.0
 11
3.689
 21
5.37849
 31
0.0
  0
LINE
  8
0
 62
     0
 10
3.689
 20
5.37849
 30
0.0
 11
2.96003
 21
6.30453
 31
0.0
  0
LINE
  8
0
 62
     0
 10
2.96003
 20
6.30453
 30
0.0
 11
2.30546
 21
7.28292
 31
0.0
  0
LINE
  8
0
 62
     0
 10
2.30546
 20
7.28292
 30
0.0
 11
1.72944
 21
8.31095
 31
0.0
  0
LINE
  8
0
 62
     0
 10
1.72944
 20
8.31095
 30
0.0
 11
1.2361
 21
9.3817
 31
0.0
  0
LINE
  8
0
 62
     0
 10
1.2361
 20
9.3817
 30
0.0
 11
0.829578
 21
10.4855
 31
0.0
  0
LINE
  8
0
 62
     0
 10
0.829578
 20
10.4855
 30
0.0
 11
0.509873
 21
11.6196
 31
0.0
  0
LINE
  8
0
 62
     0
 10
0.509873
 20
11.6196
 30
0.0
 11
0.279742
 21
12.7744
 31
0.0
  0
LINE
  8
0
 62
     0
 10
0.279742
 20
12.7744
 30
0.0
 11
0.141938
 21
13.9444
 31
0.0
  0
LINE
  8
0
 62
     0
 10
0.141938
 20
13.9444
 30
0.0
 11
0.0950846
 21
15.1212
 31
0.0
  0
LINE
  8
0
 62
     0
 10
0.0950846
 20
15.1212
 30
0.0
 11
0.0950846
 21
80.8605
 31
0.0
  0
LINE
  8
0
 62
     0
 10
0.0950846
 20
80.8605
 30
0.0
 11
0.141938
 21
82.0374
 31
0.0
  0
LINE
  8
0
 62
     0
 10
0.141938
 20
82.0374
 30
0.0
 11
0.279742
 21
83.2072
 31
0.0
  0
LINE
  8
0
 62
     0
 10
0.279742
 20
83.2072
 30
0.0
 11
0.509873
 21
84.3622
 31
0.0
  0
LINE
  8
0
 62
     0
 10
0.509873
 20
84.3622
 30
0.0
 11
0.829578
 21
85.4964
 31
0.0
  0
LINE
  8
0
 62
     0
 10
0.829578
 20
85.4964
 30
0.0
 11
1.2361
 21
86.6013
 31
0.0
  0
LINE
  8
0
 62
     0
 10
1.2361
 20
86.6013
 30
0.0
 11
1.72944
 21
87.6695
 31
0.0
  0
LINE
  8
0
 62
     0
 10
1.72944
 20
87.6695
 30
0.0
 11
2.30546
 21
88.6975
 31
0.0
  0
LINE
  8
0
 62
     0
 10
2.30546
 20
88.6975
 30
0.0
 11
2.96003
 21
89.6772
 31
0.0
  0
LINE
  8
0
 62
     0
 10
2.96003
 20
89.6772
 30
0.0
 11
3.689
 21
90.6018
 31
0.0
  0
LINE
  8
0
 62
     0
 10
3.689
 20
90.6018
 30
0.0
 11
4.48829
 21
91.4672
 31
0.0
  0
LINE
  8
0
 62
     0
 10
4.48829
 20
91.4672
 30
0.0
 11
5.35369
 21
92.2666
 31
0.0
  0
LINE
  8
0
 62
     0
 10
5.35369
 20
92.2666
 30
0.0
 11
6.27835
 21
92.9954
 31
0.0
  0
LINE
  8
0
 62
     0
 10
6.27835
 20
92.9954
 30
0.0
 11
7.25812
 21
93.6502
 31
0.0
  0
LINE
  8
0
 62
     0
 10
7.25812
 20
93.6502
 30
0.0
 11
8.28615
 21
94.2262
 31
0.0
  0
LINE
  8
0
 62
     0
 10
8.28615
 20
94.2262
 30
0.0
 11
9.35411
 21
94.7194
 31
0.0
  0
LINE
  8
0
 62
     0
 10
9.35411
 20
94.7194
 30
0.0
 11
10.4593
 21
95.1258
 31
0.0
  0
LINE
  8
0
 62
     0
 10
10.4593
 20
95.1258
 30
0.0
 11
11.5934
 21
95.4458
 31
0.0
  0
LINE
  8
0
 62
     0
 10
11.5934
 20
95.4458
 30
0.0
 11
12.7482
 21
95.6758
 31
0.0
  0
LINE
  8
0
 62
     0
 10
12.7482
 20
95.6758
 30
0.0
 11
13.9182
 21
95.8137
 31
0.0
  0
LINE
  8
0
 62
     0
 10
13.9182
 20
95.8137
 30
0.0
 11
15.095
 21
95.8603
 31
0.0
  0
LINE
  8
0
 62
     0
 10
15.095
 20
95.8603
 30
0.0
 11
197.12
 21
95.8603
 31
0.0
  0
LINE
  8
0
 62
     0
 10
128.455
 20
23.9916
 30
0.0
 11
128.542
 21
22.994
 31
0.0
  0
LINE
  8
0
 62
     0
 10
128.542
 20
22.994
 30
0.0
 11
127.745
 21
22.9251
 31
0.0
  0
LINE
  8
0
 62
     0
 10
127.745
 20
22.9251
 30
0.0
 11
128.016
 21
19.8355
 31
0.0
  0
LINE
  8
0
 62
     0
 10
128.016
 20
19.8355
 30
0.0
 11
128.812
 21
19.9058
 31
0.0
  0
LINE
  8
0
 62
     0
 10
128.812
 20
19.9058
 30
0.0
 11
128.864
 21
19.3077
 31
0.0
  0
LINE
  8
0
 62
     0
 10
128.864
 20
19.3077
 30
0.0
 11
127.346
 21
19.1754
 31
0.0
  0
LINE
  8
0
 62
     0
 10
127.346
 20
19.1754
 30
0.0
 11
127.063
 21
22.3931
 31
0.0
  0
LINE
  8
0
 62
     0
 10
127.063
 20
22.3931
 30
0.0
 11
120.34
 21
21.8047
 31
0.0
  0
LINE
  8
0
 62
     0
 10
120.34
 20
21.8047
 30
0.0
 11
120.621
 21
18.587
 31
0.0
  0
LINE
  8
0
 62
     0
 10
120.621
 20
18.587
 30
0.0
 11
119.8
 21
18.5153
 31
0.0
  0
LINE
  8
0
 62
     0
 10
119.8
 20
18.5153
 30
0.0
 11
120.044
 21
15.7262
 31
0.0
  0
LINE
  8
0
 62
     0
 10
120.044
 20
15.7262
 30
0.0
 11
120.865
 21
15.7978
 31
0.0
  0
LINE
  8
0
 62
     0
 10
120.865
 20
15.7978
 30
0.0
 11
121.412
 21
9.55255
 31
0.0
  0
LINE
  8
0
 62
     0
 10
121.412
 20
9.55255
 30
0.0
 11
123.13
 21
9.70139
 31
0.0
  0
LINE
  8
0
 62
     0
 10
123.13
 20
9.70139
 30
0.0
 11
123.234
 21
8.50664
 31
0.0
  0
LINE
  8
0
 62
     0
 10
123.234
 20
8.50664
 30
0.0
 11
126.522
 21
8.79464
 31
0.0
  0
LINE
  8
0
 62
     0
 10
126.522
 20
8.79464
 30
0.0
 11
126.417
 21
9.9894
 31
0.0
  0
LINE
  8
0
 62
     0
 10
126.417
 20
9.9894
 30
0.0
 11
128.136
 21
10.1396
 31
0.0
  0
LINE
  8
0
 62
     0
 10
128.136
 20
10.1396
 30
0.0
 11
127.747
 21
14.5934
 31
0.0
  0
LINE
  8
0
 62
     0
 10
127.747
 20
14.5934
 30
0.0
 11
129.266
 21
14.7257
 31
0.0
  0
LINE
  8
0
 62
     0
 10
129.266
 20
14.7257
 30
0.0
 11
129.318
 21
14.1277
 31
0.0
  0
LINE
  8
0
 62
     0
 10
129.318
 20
14.1277
 30
0.0
 11
128.52
 21
14.0588
 31
0.0
  0
LINE
  8
0
 62
     0
 10
128.52
 20
14.0588
 30
0.0
 11
128.791
 21
10.9706
 31
0.0
  0
LINE
  8
0
 62
     0
 10
128.791
 20
10.9706
 30
0.0
 11
129.588
 21
11.0395
 31
0.0
  0
LINE
  8
0
 62
     0
 10
129.588
 20
11.0395
 30
0.0
 11
129.676
 21
10.0445
 31
0.0
  0
LINE
  8
0
 62
     0
 10
129.676
 20
10.0445
 30
0.0
 11
143.622
 21
11.2641
 31
0.0
  0
LINE
  8
0
 62
     0
 10
143.622
 20
11.2641
 30
0.0
 11
143.535
 21
12.2604
 31
0.0
  0
LINE
  8
0
 62
     0
 10
143.535
 20
12.2604
 30
0.0
 11
144.332
 21
12.3307
 31
0.0
  0
LINE
  8
0
 62
     0
 10
144.332
 20
12.3307
 30
0.0
 11
144.061
 21
15.4175
 31
0.0
  0
LINE
  8
0
 62
     0
 10
144.061
 20
15.4175
 30
0.0
 11
143.265
 21
15.3486
 31
0.0
  0
LINE
  8
0
 62
     0
 10
143.265
 20
15.3486
 30
0.0
 11
143.213
 21
15.9466
 31
0.0
  0
LINE
  8
0
 62
     0
 10
143.213
 20
15.9466
 30
0.0
 11
144.731
 21
16.0789
 31
0.0
  0
LINE
  8
0
 62
     0
 10
144.731
 20
16.0789
 30
0.0
 11
145.121
 21
11.6265
 31
0.0
  0
LINE
  8
0
 62
     0
 10
145.121
 20
11.6265
 30
0.0
 11
146.84
 21
11.7767
 31
0.0
  0
LINE
  8
0
 62
     0
 10
146.84
 20
11.7767
 30
0.0
 11
146.944
 21
10.5806
 31
0.0
  0
LINE
  8
0
 62
     0
 10
146.944
 20
10.5806
 30
0.0
 11
150.231
 21
10.8686
 31
0.0
  0
LINE
  8
0
 62
     0
 10
150.231
 20
10.8686
 30
0.0
 11
150.126
 21
12.0647
 31
0.0
  0
LINE
  8
0
 62
     0
 10
150.126
 20
12.0647
 30
0.0
 11
151.846
 21
12.2136
 31
0.0
  0
LINE
  8
0
 62
     0
 10
151.846
 20
12.2136
 30
0.0
 11
151.299
 21
18.4602
 31
0.0
  0
LINE
  8
0
 62
     0
 10
151.299
 20
18.4602
 30
0.0
 11
152.12
 21
18.5319
 31
0.0
  0
LINE
  8
0
 62
     0
 10
152.12
 20
18.5319
 30
0.0
 11
151.876
 21
21.3224
 31
0.0
  0
LINE
  8
0
 62
     0
 10
151.876
 20
21.3224
 30
0.0
 11
151.055
 21
21.2507
 31
0.0
  0
LINE
  8
0
 62
     0
 10
151.055
 20
21.2507
 30
0.0
 11
150.774
 21
24.4685
 31
0.0
  0
LINE
  8
0
 62
     0
 10
150.774
 20
24.4685
 30
0.0
 11
144.049
 21
23.8786
 31
0.0
  0
LINE
  8
0
 62
     0
 10
144.049
 20
23.8786
 30
0.0
 11
144.33
 21
20.6609
 31
0.0
  0
LINE
  8
0
 62
     0
 10
144.33
 20
20.6609
 30
0.0
 11
142.812
 21
20.5286
 31
0.0
  0
LINE
  8
0
 62
     0
 10
142.812
 20
20.5286
 30
0.0
 11
142.759
 21
21.1267
 31
0.0
  0
LINE
  8
0
 62
     0
 10
142.759
 20
21.1267
 30
0.0
 11
143.557
 21
21.1956
 31
0.0
  0
LINE
  8
0
 62
     0
 10
143.557
 20
21.1956
 30
0.0
 11
143.286
 21
24.2838
 31
0.0
  0
LINE
  8
0
 62
     0
 10
143.286
 20
24.2838
 30
0.0
 11
142.489
 21
24.2149
 31
0.0
  0
LINE
  8
0
 62
     0
 10
142.489
 20
24.2149
 30
0.0
 11
142.401
 21
25.2112
 31
0.0
  0
LINE
  8
0
 62
     0
 10
142.401
 20
25.2112
 30
0.0
 11
128.455
 21
23.9916
 31
0.0
  0
LINE
  8
0
 62
     0
 10
71.483
 20
23.6513
 30
0.0
 11
70.6864
 21
23.7216
 31
0.0
  0
LINE
  8
0
 62
     0
 10
70.6864
 20
23.7216
 30
0.0
 11
70.4152
 21
20.632
 31
0.0
  0
LINE
  8
0
 62
     0
 10
70.4152
 20
20.632
 30
0.0
 11
71.2128
 21
20.5631
 31
0.0
  0
LINE
  8
0
 62
     0
 10
71.2128
 20
20.5631
 30
0.0
 11
70.7072
 21
14.785
 31
0.0
  0
LINE
  8
0
 62
     0
 10
70.7072
 20
14.785
 30
0.0
 11
69.9107
 21
14.8539
 31
0.0
  0
LINE
  8
0
 62
     0
 10
69.9107
 20
14.8539
 30
0.0
 11
69.6405
 21
11.7657
 31
0.0
  0
LINE
  8
0
 62
     0
 10
69.6405
 20
11.7657
 30
0.0
 11
70.437
 21
11.6954
 31
0.0
  0
LINE
  8
0
 62
     0
 10
70.437
 20
11.6954
 30
0.0
 11
70.3488
 21
10.7005
 31
0.0
  0
LINE
  8
0
 62
     0
 10
70.3488
 20
10.7005
 30
0.0
 11
84.2959
 21
9.47953
 31
0.0
  0
LINE
  8
0
 62
     0
 10
84.2959
 20
9.47953
 30
0.0
 11
84.3841
 21
10.4758
 31
0.0
  0
LINE
  8
0
 62
     0
 10
84.3841
 20
10.4758
 30
0.0
 11
85.1807
 21
10.4069
 31
0.0
  0
LINE
  8
0
 62
     0
 10
85.1807
 20
10.4069
 30
0.0
 11
85.4509
 21
13.4951
 31
0.0
  0
LINE
  8
0
 62
     0
 10
85.4509
 20
13.4951
 30
0.0
 11
84.6543
 21
13.5654
 31
0.0
  0
LINE
  8
0
 62
     0
 10
84.6543
 20
13.5654
 30
0.0
 11
85.1598
 21
19.3421
 31
0.0
  0
LINE
  8
0
 62
     0
 10
85.1598
 20
19.3421
 30
0.0
 11
85.9564
 21
19.2732
 31
0.0
  0
LINE
  8
0
 62
     0
 10
85.9564
 20
19.2732
 30
0.0
 11
86.2266
 21
22.3614
 31
0.0
  0
LINE
  8
0
 62
     0
 10
86.2266
 20
22.3614
 30
0.0
 11
85.4301
 21
22.4317
 31
0.0
  0
LINE
  8
0
 62
     0
 10
85.4301
 20
22.4317
 30
0.0
 11
85.5169
 21
23.4267
 31
0.0
  0
LINE
  8
0
 62
     0
 10
85.5169
 20
23.4267
 30
0.0
 11
71.5712
 21
24.6476
 31
0.0
  0
LINE
  8
0
 62
     0
 10
71.5712
 20
24.6476
 30
0.0
 11
71.483
 21
23.6513
 31
0.0
  0
LINE
  8
0
 62
     0
 10
98.8702
 20
23.5176
 30
0.0
 11
98.8702
 21
22.5185
 31
0.0
  0
LINE
  8
0
 62
     0
 10
98.8702
 20
22.5185
 30
0.0
 11
98.0708
 21
22.5185
 31
0.0
  0
LINE
  8
0
 62
     0
 10
98.0708
 20
22.5185
 30
0.0
 11
98.0708
 21
19.4179
 31
0.0
  0
LINE
  8
0
 62
     0
 10
98.0708
 20
19.4179
 30
0.0
 11
98.8702
 21
19.4179
 31
0.0
  0
LINE
  8
0
 62
     0
 10
98.8702
 20
19.4179
 30
0.0
 11
98.8702
 21
13.6178
 31
0.0
  0
LINE
  8
0
 62
     0
 10
98.8702
 20
13.6178
 30
0.0
 11
98.0708
 21
13.6178
 31
0.0
  0
LINE
  8
0
 62
     0
 10
98.0708
 20
13.6178
 30
0.0
 11
98.0708
 21
10.5186
 31
0.0
  0
LINE
  8
0
 62
     0
 10
98.0708
 20
10.5186
 30
0.0
 11
98.8702
 21
10.5186
 31
0.0
  0
LINE
  8
0
 62
     0
 10
98.8702
 20
10.5186
 30
0.0
 11
98.8702
 21
9.51812
 31
0.0
  0
LINE
  8
0
 62
     0
 10
98.8702
 20
9.51812
 30
0.0
 11
112.871
 21
9.51812
 31
0.0
  0
LINE
  8
0
 62
     0
 10
112.871
 20
9.51812
 30
0.0
 11
112.871
 21
10.5186
 31
0.0
  0
LINE
  8
0
 62
     0
 10
112.871
 20
10.5186
 30
0.0
 11
113.67
 21
10.5186
 31
0.0
  0
LINE
  8
0
 62
     0
 10
113.67
 20
10.5186
 30
0.0
 11
113.67
 21
13.6178
 31
0.0
  0
LINE
  8
0
 62
     0
 10
113.67
 20
13.6178
 30
0.0
 11
112.871
 21
13.6178
 31
0.0
  0
LINE
  8
0
 62
     0
 10
112.871
 20
13.6178
 30
0.0
 11
112.871
 21
19.4179
 31
0.0
  0
LINE
  8
0
 62
     0
 10
112.871
 20
19.4179
 30
0.0
 11
113.67
 21
19.4179
 31
0.0
  0
LINE
  8
0
 62
     0
 10
113.67
 20
19.4179
 30
0.0
 11
113.67
 21
22.5185
 31
0.0
  0
LINE
  8
0
 62
     0
 10
113.67
 20
22.5185
 30
0.0
 11
112.871
 21
22.5185
 31
0.0
  0
LINE
  8
0
 62
     0
 10
112.871
 20
22.5185
 30
0.0
 11
112.871
 21
23.5176
 31
0.0
  0
LINE
  8
0
 62
     0
 10
112.871
 20
23.5176
 30
0.0
 11
98.8702
 21
23.5176
 31
0.0
  0
LINE
  8
0
 62
     0
 10
43.017
 20
26.1414
 30
0.0
 11
42.219
 21
26.2117
 31
0.0
  0
LINE
  8
0
 62
     0
 10
42.219
 20
26.2117
 30
0.0
 11
41.9488
 21
23.1235
 31
0.0
  0
LINE
  8
0
 62
     0
 10
41.9488
 20
23.1235
 30
0.0
 11
42.7468
 21
23.0532
 31
0.0
  0
LINE
  8
0
 62
     0
 10
42.7468
 20
23.0532
 30
0.0
 11
42.2409
 21
17.2751
 31
0.0
  0
LINE
  8
0
 62
     0
 10
42.2409
 20
17.2751
 30
0.0
 11
41.4443
 21
17.3454
 31
0.0
  0
LINE
  8
0
 62
     0
 10
41.4443
 20
17.3454
 30
0.0
 11
41.173
 21
14.2572
 31
0.0
  0
LINE
  8
0
 62
     0
 10
41.173
 20
14.2572
 30
0.0
 11
41.971
 21
14.1869
 31
0.0
  0
LINE
  8
0
 62
     0
 10
41.971
 20
14.1869
 30
0.0
 11
41.8842
 21
13.1906
 31
0.0
  0
LINE
  8
0
 62
     0
 10
41.8842
 20
13.1906
 30
0.0
 11
55.8299
 21
11.971
 31
0.0
  0
LINE
  8
0
 62
     0
 10
55.8299
 20
11.971
 30
0.0
 11
55.9181
 21
12.9673
 31
0.0
  0
LINE
  8
0
 62
     0
 10
55.9181
 20
12.9673
 30
0.0
 11
56.7147
 21
12.8971
 31
0.0
  0
LINE
  8
0
 62
     0
 10
56.7147
 20
12.8971
 30
0.0
 11
56.9845
 21
15.9852
 31
0.0
  0
LINE
  8
0
 62
     0
 10
56.9845
 20
15.9852
 30
0.0
 11
56.188
 21
16.0555
 31
0.0
  0
LINE
  8
0
 62
     0
 10
56.188
 20
16.0555
 30
0.0
 11
56.6939
 21
21.8336
 31
0.0
  0
LINE
  8
0
 62
     0
 10
56.6939
 20
21.8336
 30
0.0
 11
57.4904
 21
21.7634
 31
0.0
  0
LINE
  8
0
 62
     0
 10
57.4904
 20
21.7634
 30
0.0
 11
57.7603
 21
24.8515
 31
0.0
  0
LINE
  8
0
 62
     0
 10
57.7603
 20
24.8515
 30
0.0
 11
56.9641
 21
24.9204
 31
0.0
  0
LINE
  8
0
 62
     0
 10
56.9641
 20
24.9204
 30
0.0
 11
57.0509
 21
25.9167
 31
0.0
  0
LINE
  8
0
 62
     0
 10
57.0509
 20
25.9167
 30
0.0
 11
43.1038
 21
27.1377
 31
0.0
  0
LINE
  8
0
 62
     0
 10
43.1038
 20
27.1377
 30
0.0
 11
43.017
 21
26.1414
 31
0.0
  0
LINE
  8
0
 62
     0
 10
156.921
 20
26.4804
 30
0.0
 11
157.008
 21
25.4854
 31
0.0
  0
LINE
  8
0
 62
     0
 10
157.008
 20
25.4854
 30
0.0
 11
156.212
 21
25.4152
 31
0.0
  0
LINE
  8
0
 62
     0
 10
156.212
 20
25.4152
 30
0.0
 11
156.482
 21
22.327
 31
0.0
  0
LINE
  8
0
 62
     0
 10
156.482
 20
22.327
 30
0.0
 11
157.278
 21
22.3973
 31
0.0
  0
LINE
  8
0
 62
     0
 10
157.278
 20
22.3973
 30
0.0
 11
157.784
 21
16.6192
 31
0.0
  0
LINE
  8
0
 62
     0
 10
157.784
 20
16.6192
 30
0.0
 11
156.988
 21
16.5489
 31
0.0
  0
LINE
  8
0
 62
     0
 10
156.988
 20
16.5489
 30
0.0
 11
157.258
 21
13.4607
 31
0.0
  0
LINE
  8
0
 62
     0
 10
157.258
 20
13.4607
 30
0.0
 11
158.054
 21
13.5296
 31
0.0
  0
LINE
  8
0
 62
     0
 10
158.054
 20
13.5296
 30
0.0
 11
158.141
 21
12.5347
 31
0.0
  0
LINE
  8
0
 62
     0
 10
158.141
 20
12.5347
 30
0.0
 11
172.088
 21
13.7542
 31
0.0
  0
LINE
  8
0
 62
     0
 10
172.088
 20
13.7542
 30
0.0
 11
172.001
 21
14.7505
 31
0.0
  0
LINE
  8
0
 62
     0
 10
172.001
 20
14.7505
 30
0.0
 11
172.798
 21
14.8194
 31
0.0
  0
LINE
  8
0
 62
     0
 10
172.798
 20
14.8194
 30
0.0
 11
172.528
 21
17.909
 31
0.0
  0
LINE
  8
0
 62
     0
 10
172.528
 20
17.909
 30
0.0
 11
171.731
 21
17.8387
 31
0.0
  0
LINE
  8
0
 62
     0
 10
171.731
 20
17.8387
 30
0.0
 11
171.225
 21
23.6168
 31
0.0
  0
LINE
  8
0
 62
     0
 10
171.225
 20
23.6168
 30
0.0
 11
172.022
 21
23.6871
 31
0.0
  0
LINE
  8
0
 62
     0
 10
172.022
 20
23.6871
 30
0.0
 11
171.753
 21
26.7753
 31
0.0
  0
LINE
  8
0
 62
     0
 10
171.753
 20
26.7753
 30
0.0
 11
170.955
 21
26.705
 31
0.0
  0
LINE
  8
0
 62
     0
 10
170.955
 20
26.705
 30
0.0
 11
170.869
 21
27.7013
 31
0.0
  0
LINE
  8
0
 62
     0
 10
170.869
 20
27.7013
 30
0.0
 11
156.921
 21
26.4804
 31
0.0
  0
LINE
  8
0
 62
     0
 10
175.898
 20
28.1409
 30
0.0
 11
175.985
 21
27.1446
 31
0.0
  0
LINE
  8
0
 62
     0
 10
175.985
 20
27.1446
 30
0.0
 11
175.189
 21
27.0757
 31
0.0
  0
LINE
  8
0
 62
     0
 10
175.189
 20
27.0757
 30
0.0
 11
175.46
 21
23.9875
 31
0.0
  0
LINE
  8
0
 62
     0
 10
175.46
 20
23.9875
 30
0.0
 11
176.257
 21
24.0564
 31
0.0
  0
LINE
  8
0
 62
     0
 10
176.257
 20
24.0564
 30
0.0
 11
176.761
 21
18.2797
 31
0.0
  0
LINE
  8
0
 62
     0
 10
176.761
 20
18.2797
 30
0.0
 11
175.964
 21
18.2094
 31
0.0
  0
LINE
  8
0
 62
     0
 10
175.964
 20
18.2094
 30
0.0
 11
176.235
 21
15.1212
 31
0.0
  0
LINE
  8
0
 62
     0
 10
176.235
 20
15.1212
 30
0.0
 11
177.031
 21
15.1915
 31
0.0
  0
LINE
  8
0
 62
     0
 10
177.031
 20
15.1915
 30
0.0
 11
177.118
 21
14.1952
 31
0.0
  0
LINE
  8
0
 62
     0
 10
177.118
 20
14.1952
 30
0.0
 11
191.065
 21
15.4147
 31
0.0
  0
LINE
  8
0
 62
     0
 10
191.065
 20
15.4147
 30
0.0
 11
190.978
 21
16.411
 31
0.0
  0
LINE
  8
0
 62
     0
 10
190.978
 20
16.411
 30
0.0
 11
191.776
 21
16.4814
 31
0.0
  0
LINE
  8
0
 62
     0
 10
191.776
 20
16.4814
 30
0.0
 11
191.506
 21
19.5695
 31
0.0
  0
LINE
  8
0
 62
     0
 10
191.506
 20
19.5695
 30
0.0
 11
190.708
 21
19.4992
 31
0.0
  0
LINE
  8
0
 62
     0
 10
190.708
 20
19.4992
 30
0.0
 11
190.202
 21
25.2773
 31
0.0
  0
LINE
  8
0
 62
     0
 10
190.202
 20
25.2773
 30
0.0
 11
190.999
 21
25.3476
 31
0.0
  0
LINE
  8
0
 62
     0
 10
190.999
 20
25.3476
 30
0.0
 11
190.73
 21
28.4345
 31
0.0
  0
LINE
  8
0
 62
     0
 10
190.73
 20
28.4345
 30
0.0
 11
189.932
 21
28.3656
 31
0.0
  0
LINE
  8
0
 62
     0
 10
189.932
 20
28.3656
 30
0.0
 11
189.846
 21
29.3605
 31
0.0
  0
LINE
  8
0
 62
     0
 10
189.846
 20
29.3605
 30
0.0
 11
175.898
 21
28.1409
 31
0.0
  0
LINE
  8
0
 62
     0
 10
12.1791
 20
28.8396
 30
0.0
 11
11.3812
 21
28.9085
 31
0.0
  0
LINE
  8
0
 62
     0
 10
11.3812
 20
28.9085
 30
0.0
 11
11.1111
 21
25.8217
 31
0.0
  0
LINE
  8
0
 62
     0
 10
11.1111
 20
25.8217
 30
0.0
 11
11.909
 21
25.7514
 31
0.0
  0
LINE
  8
0
 62
     0
 10
11.909
 20
25.7514
 30
0.0
 11
11.4019
 21
19.9733
 31
0.0
  0
LINE
  8
0
 62
     0
 10
11.4019
 20
19.9733
 30
0.0
 11
10.6054
 21
20.0436
 31
0.0
  0
LINE
  8
0
 62
     0
 10
10.6054
 20
20.0436
 30
0.0
 11
10.3353
 21
16.9554
 31
0.0
  0
LINE
  8
0
 62
     0
 10
10.3353
 20
16.9554
 30
0.0
 11
11.1318
 21
16.8851
 31
0.0
  0
LINE
  8
0
 62
     0
 10
11.1318
 20
16.8851
 30
0.0
 11
11.045
 21
15.8888
 31
0.0
  0
LINE
  8
0
 62
     0
 10
11.045
 20
15.8888
 30
0.0
 11
24.9921
 21
14.6692
 31
0.0
  0
LINE
  8
0
 62
     0
 10
24.9921
 20
14.6692
 30
0.0
 11
25.0789
 21
15.6656
 31
0.0
  0
LINE
  8
0
 62
     0
 10
25.0789
 20
15.6656
 30
0.0
 11
25.8768
 21
15.5952
 31
0.0
  0
LINE
  8
0
 62
     0
 10
25.8768
 20
15.5952
 30
0.0
 11
26.1469
 21
18.6834
 31
0.0
  0
LINE
  8
0
 62
     0
 10
26.1469
 20
18.6834
 30
0.0
 11
25.349
 21
18.7537
 31
0.0
  0
LINE
  8
0
 62
     0
 10
25.349
 20
18.7537
 30
0.0
 11
25.8548
 21
24.5305
 31
0.0
  0
LINE
  8
0
 62
     0
 10
25.8548
 20
24.5305
 30
0.0
 11
26.6513
 21
24.4615
 31
0.0
  0
LINE
  8
0
 62
     0
 10
26.6513
 20
24.4615
 30
0.0
 11
26.9214
 21
27.5498
 31
0.0
  0
LINE
  8
0
 62
     0
 10
26.9214
 20
27.5498
 30
0.0
 11
26.1249
 21
27.6187
 31
0.0
  0
LINE
  8
0
 62
     0
 10
26.1249
 20
27.6187
 30
0.0
 11
26.213
 21
28.615
 31
0.0
  0
LINE
  8
0
 62
     0
 10
26.213
 20
28.615
 30
0.0
 11
12.2659
 21
29.8359
 31
0.0
  0
LINE
  8
0
 62
     0
 10
12.2659
 20
29.8359
 30
0.0
 11
12.1791
 21
28.8396
 31
0.0
  0
LINE
  8
0
 62
     0
 10
80.2598
 20
42.0067
 30
0.0
 11
79.4618
 21
42.0758
 31
0.0
  0
LINE
  8
0
 62
     0
 10
79.4618
 20
42.0758
 30
0.0
 11
79.193
 21
38.9876
 31
0.0
  0
LINE
  8
0
 62
     0
 10
79.193
 20
38.9876
 30
0.0
 11
79.9895
 21
38.9184
 31
0.0
  0
LINE
  8
0
 62
     0
 10
79.9895
 20
38.9184
 30
0.0
 11
79.484
 21
33.1404
 31
0.0
  0
LINE
  8
0
 62
     0
 10
79.484
 20
33.1404
 30
0.0
 11
78.6874
 21
33.2093
 31
0.0
  0
LINE
  8
0
 62
     0
 10
78.6874
 20
33.2093
 30
0.0
 11
78.4172
 21
30.1212
 31
0.0
  0
LINE
  8
0
 62
     0
 10
78.4172
 20
30.1212
 30
0.0
 11
79.2138
 21
30.0509
 31
0.0
  0
LINE
  8
0
 62
     0
 10
79.2138
 20
30.0509
 30
0.0
 11
79.127
 21
29.0546
 31
0.0
  0
LINE
  8
0
 62
     0
 10
79.127
 20
29.0546
 30
0.0
 11
93.0741
 21
27.835
 31
0.0
  0
LINE
  8
0
 62
     0
 10
93.0741
 20
27.835
 30
0.0
 11
93.1609
 21
28.8313
 31
0.0
  0
LINE
  8
0
 62
     0
 10
93.1609
 20
28.8313
 30
0.0
 11
93.9574
 21
28.761
 31
0.0
  0
LINE
  8
0
 62
     0
 10
93.9574
 20
28.761
 30
0.0
 11
94.2276
 21
31.8506
 31
0.0
  0
LINE
  8
0
 62
     0
 10
94.2276
 20
31.8506
 30
0.0
 11
93.4311
 21
31.9195
 31
0.0
  0
LINE
  8
0
 62
     0
 10
93.4311
 20
31.9195
 30
0.0
 11
93.9366
 21
37.6975
 31
0.0
  0
LINE
  8
0
 62
     0
 10
93.9366
 20
37.6975
 30
0.0
 11
94.7332
 21
37.6287
 31
0.0
  0
LINE
  8
0
 62
     0
 10
94.7332
 20
37.6287
 30
0.0
 11
95.0034
 21
40.7155
 31
0.0
  0
LINE
  8
0
 62
     0
 10
95.0034
 20
40.7155
 30
0.0
 11
94.2068
 21
40.7857
 31
0.0
  0
LINE
  8
0
 62
     0
 10
94.2068
 20
40.7857
 30
0.0
 11
94.2936
 21
41.7823
 31
0.0
  0
LINE
  8
0
 62
     0
 10
94.2936
 20
41.7823
 30
0.0
 11
80.348
 21
43.0018
 31
0.0
  0
LINE
  8
0
 62
     0
 10
80.348
 20
43.0018
 30
0.0
 11
80.2598
 21
42.0067
 31
0.0
  0
LINE
  8
0
 62
     0
 10
117.306
 20
42.1375
 30
0.0
 11
117.394
 21
41.1427
 31
0.0
  0
LINE
  8
0
 62
     0
 10
117.394
 20
41.1427
 30
0.0
 11
116.596
 21
41.0725
 31
0.0
  0
LINE
  8
0
 62
     0
 10
116.596
 20
41.0725
 30
0.0
 11
116.866
 21
37.9843
 31
0.0
  0
LINE
  8
0
 62
     0
 10
116.866
 20
37.9843
 30
0.0
 11
117.664
 21
38.0531
 31
0.0
  0
LINE
  8
0
 62
     0
 10
117.664
 20
38.0531
 30
0.0
 11
118.168
 21
32.2764
 31
0.0
  0
LINE
  8
0
 62
     0
 10
118.168
 20
32.2764
 30
0.0
 11
117.372
 21
32.2061
 31
0.0
  0
LINE
  8
0
 62
     0
 10
117.372
 20
32.2061
 30
0.0
 11
117.643
 21
29.118
 31
0.0
  0
LINE
  8
0
 62
     0
 10
117.643
 20
29.118
 30
0.0
 11
118.438
 21
29.1869
 31
0.0
  0
LINE
  8
0
 62
     0
 10
118.438
 20
29.1869
 30
0.0
 11
118.526
 21
28.1905
 31
0.0
  0
LINE
  8
0
 62
     0
 10
118.526
 20
28.1905
 30
0.0
 11
132.472
 21
29.4115
 31
0.0
  0
LINE
  8
0
 62
     0
 10
132.472
 20
29.4115
 30
0.0
 11
132.386
 21
30.4078
 31
0.0
  0
LINE
  8
0
 62
     0
 10
132.386
 20
30.4078
 30
0.0
 11
133.182
 21
30.4767
 31
0.0
  0
LINE
  8
0
 62
     0
 10
133.182
 20
30.4767
 30
0.0
 11
132.913
 21
33.5649
 31
0.0
  0
LINE
  8
0
 62
     0
 10
132.913
 20
33.5649
 30
0.0
 11
132.115
 21
33.496
 31
0.0
  0
LINE
  8
0
 62
     0
 10
132.115
 20
33.496
 30
0.0
 11
131.611
 21
39.274
 31
0.0
  0
LINE
  8
0
 62
     0
 10
131.611
 20
39.274
 30
0.0
 11
132.406
 21
39.3428
 31
0.0
  0
LINE
  8
0
 62
     0
 10
132.406
 20
39.3428
 30
0.0
 11
132.136
 21
42.4325
 31
0.0
  0
LINE
  8
0
 62
     0
 10
132.136
 20
42.4325
 30
0.0
 11
131.34
 21
42.3623
 31
0.0
  0
LINE
  8
0
 62
     0
 10
131.34
 20
42.3623
 30
0.0
 11
131.253
 21
43.3585
 31
0.0
  0
LINE
  8
0
 62
     0
 10
131.253
 20
43.3585
 30
0.0
 11
117.306
 21
42.1375
 31
0.0
  0
LINE
  8
0
 62
     0
 10
61.2828
 20
43.6658
 30
0.0
 11
60.4848
 21
43.7363
 31
0.0
  0
LINE
  8
0
 62
     0
 10
60.4848
 20
43.7363
 30
0.0
 11
60.216
 21
40.6481
 31
0.0
  0
LINE
  8
0
 62
     0
 10
60.216
 20
40.6481
 30
0.0
 11
61.0126
 21
40.5776
 31
0.0
  0
LINE
  8
0
 62
     0
 10
61.0126
 20
40.5776
 30
0.0
 11
60.507
 21
34.7996
 31
0.0
  0
LINE
  8
0
 62
     0
 10
60.507
 20
34.7996
 30
0.0
 11
59.709
 21
34.8699
 31
0.0
  0
LINE
  8
0
 62
     0
 10
59.709
 20
34.8699
 30
0.0
 11
59.4388
 21
31.7817
 31
0.0
  0
LINE
  8
0
 62
     0
 10
59.4388
 20
31.7817
 30
0.0
 11
60.2368
 21
31.7114
 31
0.0
  0
LINE
  8
0
 62
     0
 10
60.2368
 20
31.7114
 30
0.0
 11
60.15
 21
30.7151
 31
0.0
  0
LINE
  8
0
 62
     0
 10
60.15
 20
30.7151
 30
0.0
 11
74.0971
 21
29.4955
 31
0.0
  0
LINE
  8
0
 62
     0
 10
74.0971
 20
29.4955
 30
0.0
 11
74.1839
 21
30.4919
 31
0.0
  0
LINE
  8
0
 62
     0
 10
74.1839
 20
30.4919
 30
0.0
 11
74.9804
 21
30.4216
 31
0.0
  0
LINE
  8
0
 62
     0
 10
74.9804
 20
30.4216
 30
0.0
 11
75.2507
 21
33.5098
 31
0.0
  0
LINE
  8
0
 62
     0
 10
75.2507
 20
33.5098
 30
0.0
 11
74.4541
 21
33.58
 31
0.0
  0
LINE
  8
0
 62
     0
 10
74.4541
 20
33.58
 30
0.0
 11
74.9582
 21
39.358
 31
0.0
  0
LINE
  8
0
 62
     0
 10
74.9582
 20
39.358
 30
0.0
 11
75.7548
 21
39.2878
 31
0.0
  0
LINE
  8
0
 62
     0
 10
75.7548
 20
39.2878
 30
0.0
 11
76.0264
 21
42.376
 31
0.0
  0
LINE
  8
0
 62
     0
 10
76.0264
 20
42.376
 30
0.0
 11
75.2299
 21
42.4462
 31
0.0
  0
LINE
  8
0
 62
     0
 10
75.2299
 20
42.4462
 30
0.0
 11
75.3166
 21
43.4428
 31
0.0
  0
LINE
  8
0
 62
     0
 10
75.3166
 20
43.4428
 30
0.0
 11
61.3696
 21
44.6624
 31
0.0
  0
LINE
  8
0
 62
     0
 10
61.3696
 20
44.6624
 30
0.0
 11
61.2828
 21
43.6658
 31
0.0
  0
LINE
  8
0
 62
     0
 10
136.284
 20
43.7981
 30
0.0
 11
136.371
 21
42.8018
 31
0.0
  0
LINE
  8
0
 62
     0
 10
136.371
 20
42.8018
 30
0.0
 11
135.574
 21
42.7316
 31
0.0
  0
LINE
  8
0
 62
     0
 10
135.574
 20
42.7316
 30
0.0
 11
135.843
 21
39.6434
 31
0.0
  0
LINE
  8
0
 62
     0
 10
135.843
 20
39.6434
 30
0.0
 11
136.641
 21
39.7136
 31
0.0
  0
LINE
  8
0
 62
     0
 10
136.641
 20
39.7136
 30
0.0
 11
137.147
 21
33.9356
 31
0.0
  0
LINE
  8
0
 62
     0
 10
137.147
 20
33.9356
 30
0.0
 11
136.35
 21
33.8667
 31
0.0
  0
LINE
  8
0
 62
     0
 10
136.35
 20
33.8667
 30
0.0
 11
136.62
 21
30.7785
 31
0.0
  0
LINE
  8
0
 62
     0
 10
136.62
 20
30.7785
 30
0.0
 11
137.416
 21
30.8474
 31
0.0
  0
LINE
  8
0
 62
     0
 10
137.416
 20
30.8474
 30
0.0
 11
137.503
 21
29.8511
 31
0.0
  0
LINE
  8
0
 62
     0
 10
137.503
 20
29.8511
 30
0.0
 11
151.451
 21
31.072
 31
0.0
  0
LINE
  8
0
 62
     0
 10
151.451
 20
31.072
 30
0.0
 11
151.364
 21
32.0683
 31
0.0
  0
LINE
  8
0
 62
     0
 10
151.364
 20
32.0683
 30
0.0
 11
152.16
 21
32.1386
 31
0.0
  0
LINE
  8
0
 62
     0
 10
152.16
 20
32.1386
 30
0.0
 11
151.89
 21
35.2254
 31
0.0
  0
LINE
  8
0
 62
     0
 10
151.89
 20
35.2254
 30
0.0
 11
151.094
 21
35.1565
 31
0.0
  0
LINE
  8
0
 62
     0
 10
151.094
 20
35.1565
 30
0.0
 11
150.588
 21
40.9346
 31
0.0
  0
LINE
  8
0
 62
     0
 10
150.588
 20
40.9346
 30
0.0
 11
151.384
 21
41.0034
 31
0.0
  0
LINE
  8
0
 62
     0
 10
151.384
 20
41.0034
 30
0.0
 11
151.114
 21
44.0916
 31
0.0
  0
LINE
  8
0
 62
     0
 10
151.114
 20
44.0916
 30
0.0
 11
150.318
 21
44.0214
 31
0.0
  0
LINE
  8
0
 62
     0
 10
150.318
 20
44.0214
 30
0.0
 11
150.231
 21
45.0176
 31
0.0
  0
LINE
  8
0
 62
     0
 10
150.231
 20
45.0176
 30
0.0
 11
136.284
 21
43.7981
 31
0.0
  0
LINE
  8
0
 62
     0
 10
42.3044
 20
45.3263
 30
0.0
 11
41.5078
 21
45.3969
 31
0.0
  0
LINE
  8
0
 62
     0
 10
41.5078
 20
45.3969
 30
0.0
 11
41.238
 21
42.3086
 31
0.0
  0
LINE
  8
0
 62
     0
 10
41.238
 20
42.3086
 30
0.0
 11
42.0342
 21
42.2381
 31
0.0
  0
LINE
  8
0
 62
     0
 10
42.0342
 20
42.2381
 30
0.0
 11
41.5301
 21
36.4603
 31
0.0
  0
LINE
  8
0
 62
     0
 10
41.5301
 20
36.4603
 30
0.0
 11
40.7321
 21
36.5305
 31
0.0
  0
LINE
  8
0
 62
     0
 10
40.7321
 20
36.5305
 30
0.0
 11
40.4618
 21
33.4422
 31
0.0
  0
LINE
  8
0
 62
     0
 10
40.4618
 20
33.4422
 30
0.0
 11
41.2584
 21
33.372
 31
0.0
  0
LINE
  8
0
 62
     0
 10
41.2584
 20
33.372
 30
0.0
 11
41.1716
 21
32.3756
 31
0.0
  0
LINE
  8
0
 62
     0
 10
41.1716
 20
32.3756
 30
0.0
 11
55.1187
 21
31.1561
 31
0.0
  0
LINE
  8
0
 62
     0
 10
55.1187
 20
31.1561
 30
0.0
 11
55.2055
 21
32.1524
 31
0.0
  0
LINE
  8
0
 62
     0
 10
55.2055
 20
32.1524
 30
0.0
 11
56.0021
 21
32.0821
 31
0.0
  0
LINE
  8
0
 62
     0
 10
56.0021
 20
32.0821
 30
0.0
 11
56.2723
 21
35.1703
 31
0.0
  0
LINE
  8
0
 62
     0
 10
56.2723
 20
35.1703
 30
0.0
 11
55.4757
 21
35.2406
 31
0.0
  0
LINE
  8
0
 62
     0
 10
55.4757
 20
35.2406
 30
0.0
 11
55.9816
 21
41.0185
 31
0.0
  0
LINE
  8
0
 62
     0
 10
55.9816
 20
41.0185
 30
0.0
 11
56.7778
 21
40.9483
 31
0.0
  0
LINE
  8
0
 62
     0
 10
56.7778
 20
40.9483
 30
0.0
 11
57.048
 21
44.0365
 31
0.0
  0
LINE
  8
0
 62
     0
 10
57.048
 20
44.0365
 30
0.0
 11
56.2515
 21
44.1053
 31
0.0
  0
LINE
  8
0
 62
     0
 10
56.2515
 20
44.1053
 30
0.0
 11
56.3383
 21
45.1019
 31
0.0
  0
LINE
  8
0
 62
     0
 10
56.3383
 20
45.1019
 30
0.0
 11
42.3912
 21
46.3229
 31
0.0
  0
LINE
  8
0
 62
     0
 10
42.3912
 20
46.3229
 30
0.0
 11
42.3044
 21
45.3263
 31
0.0
  0
LINE
  8
0
 62
     0
 10
155.261
 20
45.4586
 30
0.0
 11
155.349
 21
44.4623
 31
0.0
  0
LINE
  8
0
 62
     0
 10
155.349
 20
44.4623
 30
0.0
 11
154.551
 21
44.3936
 31
0.0
  0
LINE
  8
0
 62
     0
 10
154.551
 20
44.3936
 30
0.0
 11
154.821
 21
41.3039
 31
0.0
  0
LINE
  8
0
 62
     0
 10
154.821
 20
41.3039
 30
0.0
 11
155.619
 21
41.3741
 31
0.0
  0
LINE
  8
0
 62
     0
 10
155.619
 20
41.3741
 30
0.0
 11
156.124
 21
35.5974
 31
0.0
  0
LINE
  8
0
 62
     0
 10
156.124
 20
35.5974
 30
0.0
 11
155.327
 21
35.5258
 31
0.0
  0
LINE
  8
0
 62
     0
 10
155.327
 20
35.5258
 30
0.0
 11
155.597
 21
32.4376
 31
0.0
  0
LINE
  8
0
 62
     0
 10
155.597
 20
32.4376
 30
0.0
 11
156.393
 21
32.5079
 31
0.0
  0
LINE
  8
0
 62
     0
 10
156.393
 20
32.5079
 30
0.0
 11
156.482
 21
31.5116
 31
0.0
  0
LINE
  8
0
 62
     0
 10
156.482
 20
31.5116
 30
0.0
 11
170.428
 21
32.7326
 31
0.0
  0
LINE
  8
0
 62
     0
 10
170.428
 20
32.7326
 30
0.0
 11
170.341
 21
33.7275
 31
0.0
  0
LINE
  8
0
 62
     0
 10
170.341
 20
33.7275
 30
0.0
 11
171.137
 21
33.7978
 31
0.0
  0
LINE
  8
0
 62
     0
 10
171.137
 20
33.7978
 30
0.0
 11
170.867
 21
36.8861
 31
0.0
  0
LINE
  8
0
 62
     0
 10
170.867
 20
36.8861
 30
0.0
 11
170.071
 21
36.8155
 31
0.0
  0
LINE
  8
0
 62
     0
 10
170.071
 20
36.8155
 30
0.0
 11
169.565
 21
42.5937
 31
0.0
  0
LINE
  8
0
 62
     0
 10
169.565
 20
42.5937
 30
0.0
 11
170.361
 21
42.6642
 31
0.0
  0
LINE
  8
0
 62
     0
 10
170.361
 20
42.6642
 30
0.0
 11
170.091
 21
45.7521
 31
0.0
  0
LINE
  8
0
 62
     0
 10
170.091
 20
45.7521
 30
0.0
 11
169.295
 21
45.6819
 31
0.0
  0
LINE
  8
0
 62
     0
 10
169.295
 20
45.6819
 30
0.0
 11
169.208
 21
46.6796
 31
0.0
  0
LINE
  8
0
 62
     0
 10
169.208
 20
46.6796
 30
0.0
 11
155.261
 21
45.4586
 31
0.0
  0
LINE
  8
0
 62
     0
 10
23.3274
 20
46.9868
 30
0.0
 11
22.5309
 21
47.056
 31
0.0
  0
LINE
  8
0
 62
     0
 10
22.5309
 20
47.056
 30
0.0
 11
22.2608
 21
43.9678
 31
0.0
  0
LINE
  8
0
 62
     0
 10
22.2608
 20
43.9678
 30
0.0
 11
23.0573
 21
43.8975
 31
0.0
  0
LINE
  8
0
 62
     0
 10
23.0573
 20
43.8975
 30
0.0
 11
22.5516
 21
38.1208
 31
0.0
  0
LINE
  8
0
 62
     0
 10
22.5516
 20
38.1208
 30
0.0
 11
21.7551
 21
38.1896
 31
0.0
  0
LINE
  8
0
 62
     0
 10
21.7551
 20
38.1896
 30
0.0
 11
21.485
 21
35.1014
 31
0.0
  0
LINE
  8
0
 62
     0
 10
21.485
 20
35.1014
 30
0.0
 11
22.2815
 21
35.0325
 31
0.0
  0
LINE
  8
0
 62
     0
 10
22.2815
 20
35.0325
 30
0.0
 11
22.1947
 21
34.0362
 31
0.0
  0
LINE
  8
0
 62
     0
 10
22.1947
 20
34.0362
 30
0.0
 11
36.1417
 21
32.8166
 31
0.0
  0
LINE
  8
0
 62
     0
 10
36.1417
 20
32.8166
 30
0.0
 11
36.2285
 21
33.8116
 31
0.0
  0
LINE
  8
0
 62
     0
 10
36.2285
 20
33.8116
 30
0.0
 11
37.0251
 21
33.7426
 31
0.0
  0
LINE
  8
0
 62
     0
 10
37.0251
 20
33.7426
 30
0.0
 11
37.2953
 21
36.8307
 31
0.0
  0
LINE
  8
0
 62
     0
 10
37.2953
 20
36.8307
 30
0.0
 11
36.4987
 21
36.8998
 31
0.0
  0
LINE
  8
0
 62
     0
 10
36.4987
 20
36.8998
 30
0.0
 11
37.0032
 21
42.678
 31
0.0
  0
LINE
  8
0
 62
     0
 10
37.0032
 20
42.678
 30
0.0
 11
37.8008
 21
42.6089
 31
0.0
  0
LINE
  8
0
 62
     0
 10
37.8008
 20
42.6089
 30
0.0
 11
38.0711
 21
45.6971
 31
0.0
  0
LINE
  8
0
 62
     0
 10
38.0711
 20
45.6971
 30
0.0
 11
37.2745
 21
45.7659
 31
0.0
  0
LINE
  8
0
 62
     0
 10
37.2745
 20
45.7659
 30
0.0
 11
37.3613
 21
46.7639
 31
0.0
  0
LINE
  8
0
 62
     0
 10
37.3613
 20
46.7639
 30
0.0
 11
23.4142
 21
47.9834
 31
0.0
  0
LINE
  8
0
 62
     0
 10
23.4142
 20
47.9834
 30
0.0
 11
23.3274
 21
46.9868
 31
0.0
  0
LINE
  8
0
 62
     0
 10
174.239
 20
47.1191
 30
0.0
 11
174.326
 21
46.1229
 31
0.0
  0
LINE
  8
0
 62
     0
 10
174.326
 20
46.1229
 30
0.0
 11
173.528
 21
46.0527
 31
0.0
  0
LINE
  8
0
 62
     0
 10
173.528
 20
46.0527
 30
0.0
 11
173.798
 21
42.9645
 31
0.0
  0
LINE
  8
0
 62
     0
 10
173.798
 20
42.9645
 30
0.0
 11
174.596
 21
43.0347
 31
0.0
  0
LINE
  8
0
 62
     0
 10
174.596
 20
43.0347
 30
0.0
 11
175.102
 21
37.2565
 31
0.0
  0
LINE
  8
0
 62
     0
 10
175.102
 20
37.2565
 30
0.0
 11
174.304
 21
37.1877
 31
0.0
  0
LINE
  8
0
 62
     0
 10
174.304
 20
37.1877
 30
0.0
 11
174.574
 21
34.0996
 31
0.0
  0
LINE
  8
0
 62
     0
 10
174.574
 20
34.0996
 30
0.0
 11
175.372
 21
34.1685
 31
0.0
  0
LINE
  8
0
 62
     0
 10
175.372
 20
34.1685
 30
0.0
 11
175.459
 21
33.1722
 31
0.0
  0
LINE
  8
0
 62
     0
 10
175.459
 20
33.1722
 30
0.0
 11
189.406
 21
34.3917
 31
0.0
  0
LINE
  8
0
 62
     0
 10
189.406
 20
34.3917
 30
0.0
 11
189.319
 21
35.3893
 31
0.0
  0
LINE
  8
0
 62
     0
 10
189.319
 20
35.3893
 30
0.0
 11
190.115
 21
35.4584
 31
0.0
  0
LINE
  8
0
 62
     0
 10
190.115
 20
35.4584
 30
0.0
 11
189.846
 21
38.5466
 31
0.0
  0
LINE
  8
0
 62
     0
 10
189.846
 20
38.5466
 30
0.0
 11
189.049
 21
38.4775
 31
0.0
  0
LINE
  8
0
 62
     0
 10
189.049
 20
38.4775
 30
0.0
 11
188.542
 21
44.2556
 31
0.0
  0
LINE
  8
0
 62
     0
 10
188.542
 20
44.2556
 30
0.0
 11
189.34
 21
44.3248
 31
0.0
  0
LINE
  8
0
 62
     0
 10
189.34
 20
44.3248
 30
0.0
 11
189.069
 21
47.4126
 31
0.0
  0
LINE
  8
0
 62
     0
 10
189.069
 20
47.4126
 30
0.0
 11
188.273
 21
47.3424
 31
0.0
  0
LINE
  8
0
 62
     0
 10
188.273
 20
47.3424
 30
0.0
 11
188.185
 21
48.3387
 31
0.0
  0
LINE
  8
0
 62
     0
 10
188.185
 20
48.3387
 30
0.0
 11
174.239
 21
47.1191
 31
0.0
  0
LINE
  8
0
 62
     0
 10
4.34908
 20
48.6473
 30
0.0
 11
3.55258
 21
48.7165
 31
0.0
  0
LINE
  8
0
 62
     0
 10
3.55258
 20
48.7165
 30
0.0
 11
3.28111
 21
45.6283
 31
0.0
  0
LINE
  8
0
 62
     0
 10
3.28111
 20
45.6283
 30
0.0
 11
4.07899
 21
45.5595
 31
0.0
  0
LINE
  8
0
 62
     0
 10
4.07899
 20
45.5595
 30
0.0
 11
3.57463
 21
39.7813
 31
0.0
  0
LINE
  8
0
 62
     0
 10
3.57463
 20
39.7813
 30
0.0
 11
2.77813
 21
39.8515
 31
0.0
  0
LINE
  8
0
 62
     0
 10
2.77813
 20
39.8515
 30
0.0
 11
2.50665
 21
36.7619
 31
0.0
  0
LINE
  8
0
 62
     0
 10
2.50665
 20
36.7619
 30
0.0
 11
3.30316
 21
36.6931
 31
0.0
  0
LINE
  8
0
 62
     0
 10
3.30316
 20
36.6931
 30
0.0
 11
3.21634
 21
35.6969
 31
0.0
  0
LINE
  8
0
 62
     0
 10
3.21634
 20
35.6969
 30
0.0
 11
17.1635
 21
34.4758
 31
0.0
  0
LINE
  8
0
 62
     0
 10
17.1635
 20
34.4758
 30
0.0
 11
17.2503
 21
35.4722
 31
0.0
  0
LINE
  8
0
 62
     0
 10
17.2503
 20
35.4722
 30
0.0
 11
18.0482
 21
35.4044
 31
0.0
  0
LINE
  8
0
 62
     0
 10
18.0482
 20
35.4044
 30
0.0
 11
18.3169
 21
38.4912
 31
0.0
  0
LINE
  8
0
 62
     0
 10
18.3169
 20
38.4912
 30
0.0
 11
17.5204
 21
38.5618
 31
0.0
  0
LINE
  8
0
 62
     0
 10
17.5204
 20
38.5618
 30
0.0
 11
18.0261
 21
44.3385
 31
0.0
  0
LINE
  8
0
 62
     0
 10
18.0261
 20
44.3385
 30
0.0
 11
18.824
 21
44.2694
 31
0.0
  0
LINE
  8
0
 62
     0
 10
18.824
 20
44.2694
 30
0.0
 11
19.0941
 21
47.3576
 31
0.0
  0
LINE
  8
0
 62
     0
 10
19.0941
 20
47.3576
 30
0.0
 11
18.2962
 21
47.4267
 31
0.0
  0
LINE
  8
0
 62
     0
 10
18.2962
 20
47.4267
 30
0.0
 11
18.383
 21
48.423
 31
0.0
  0
LINE
  8
0
 62
     0
 10
18.383
 20
48.423
 30
0.0
 11
4.4359
 21
49.6425
 31
0.0
  0
LINE
  8
0
 62
     0
 10
4.4359
 20
49.6425
 30
0.0
 11
4.34908
 21
48.6473
 31
0.0
  0
LINE
  8
0
 62
     0
 10
193.216
 20
48.7786
 30
0.0
 11
193.303
 21
47.7834
 31
0.0
  0
LINE
  8
0
 62
     0
 10
193.303
 20
47.7834
 30
0.0
 11
192.507
 21
47.7132
 31
0.0
  0
LINE
  8
0
 62
     0
 10
192.507
 20
47.7132
 30
0.0
 11
192.776
 21
44.625
 31
0.0
  0
LINE
  8
0
 62
     0
 10
192.776
 20
44.625
 30
0.0
 11
193.573
 21
44.6952
 31
0.0
  0
LINE
  8
0
 62
     0
 10
193.573
 20
44.6952
 30
0.0
 11
194.079
 21
38.917
 31
0.0
  0
LINE
  8
0
 62
     0
 10
194.079
 20
38.917
 30
0.0
 11
193.281
 21
38.8468
 31
0.0
  0
LINE
  8
0
 62
     0
 10
193.281
 20
38.8468
 30
0.0
 11
193.552
 21
35.7586
 31
0.0
  0
LINE
  8
0
 62
     0
 10
193.552
 20
35.7586
 30
0.0
 11
194.349
 21
35.8292
 31
0.0
  0
LINE
  8
0
 62
     0
 10
194.349
 20
35.8292
 30
0.0
 11
194.437
 21
34.8327
 31
0.0
  0
LINE
  8
0
 62
     0
 10
194.437
 20
34.8327
 30
0.0
 11
208.383
 21
36.0535
 31
0.0
  0
LINE
  8
0
 62
     0
 10
208.383
 20
36.0535
 30
0.0
 11
208.296
 21
37.0487
 31
0.0
  0
LINE
  8
0
 62
     0
 10
208.296
 20
37.0487
 30
0.0
 11
209.092
 21
37.1189
 31
0.0
  0
LINE
  8
0
 62
     0
 10
209.092
 20
37.1189
 30
0.0
 11
208.823
 21
40.2071
 31
0.0
  0
LINE
  8
0
 62
     0
 10
208.823
 20
40.2071
 30
0.0
 11
208.026
 21
40.1366
 31
0.0
  0
LINE
  8
0
 62
     0
 10
208.026
 20
40.1366
 30
0.0
 11
207.52
 21
45.9147
 31
0.0
  0
LINE
  8
0
 62
     0
 10
207.52
 20
45.9147
 30
0.0
 11
208.318
 21
45.9853
 31
0.0
  0
LINE
  8
0
 62
     0
 10
208.318
 20
45.9853
 30
0.0
 11
208.046
 21
49.0732
 31
0.0
  0
LINE
  8
0
 62
     0
 10
208.046
 20
49.0732
 30
0.0
 11
207.25
 21
49.003
 31
0.0
  0
LINE
  8
0
 62
     0
 10
207.25
 20
49.003
 30
0.0
 11
207.162
 21
49.9992
 31
0.0
  0
LINE
  8
0
 62
     0
 10
207.162
 20
49.9992
 30
0.0
 11
193.216
 21
48.7786
 31
0.0
  0
LINE
  8
0
 62
     0
 10
81.9203
 20
60.9836
 30
0.0
 11
81.1237
 21
61.0528
 31
0.0
  0
LINE
  8
0
 62
     0
 10
81.1237
 20
61.0528
 30
0.0
 11
80.8535
 21
57.9646
 31
0.0
  0
LINE
  8
0
 62
     0
 10
80.8535
 20
57.9646
 30
0.0
 11
81.6501
 21
57.8954
 31
0.0
  0
LINE
  8
0
 62
     0
 10
81.6501
 20
57.8954
 30
0.0
 11
81.1445
 21
52.1173
 31
0.0
  0
LINE
  8
0
 62
     0
 10
81.1445
 20
52.1173
 30
0.0
 11
80.348
 21
52.1878
 31
0.0
  0
LINE
  8
0
 62
     0
 10
80.348
 20
52.1878
 30
0.0
 11
80.0777
 21
49.0996
 31
0.0
  0
LINE
  8
0
 62
     0
 10
80.0777
 20
49.0996
 30
0.0
 11
80.8743
 21
49.0291
 31
0.0
  0
LINE
  8
0
 62
     0
 10
80.8743
 20
49.0291
 30
0.0
 11
80.7875
 21
48.0328
 31
0.0
  0
LINE
  8
0
 62
     0
 10
80.7875
 20
48.0328
 30
0.0
 11
94.7332
 21
46.8133
 31
0.0
  0
LINE
  8
0
 62
     0
 10
94.7332
 20
46.8133
 30
0.0
 11
94.8214
 21
47.8095
 31
0.0
  0
LINE
  8
0
 62
     0
 10
94.8214
 20
47.8095
 30
0.0
 11
95.6179
 21
47.7393
 31
0.0
  0
LINE
  8
0
 62
     0
 10
95.6179
 20
47.7393
 30
0.0
 11
95.8882
 21
50.8275
 31
0.0
  0
LINE
  8
0
 62
     0
 10
95.8882
 20
50.8275
 30
0.0
 11
95.0916
 21
50.8963
 31
0.0
  0
LINE
  8
0
 62
     0
 10
95.0916
 20
50.8963
 30
0.0
 11
95.5957
 21
56.6745
 31
0.0
  0
LINE
  8
0
 62
     0
 10
95.5957
 20
56.6745
 30
0.0
 11
96.3937
 21
56.6057
 31
0.0
  0
LINE
  8
0
 62
     0
 10
96.3937
 20
56.6057
 30
0.0
 11
96.6639
 21
59.6925
 31
0.0
  0
LINE
  8
0
 62
     0
 10
96.6639
 20
59.6925
 30
0.0
 11
95.866
 21
59.7627
 31
0.0
  0
LINE
  8
0
 62
     0
 10
95.866
 20
59.7627
 30
0.0
 11
95.9541
 21
60.7589
 31
0.0
  0
LINE
  8
0
 62
     0
 10
95.9541
 20
60.7589
 30
0.0
 11
82.0071
 21
61.9788
 31
0.0
  0
LINE
  8
0
 62
     0
 10
82.0071
 20
61.9788
 30
0.0
 11
81.9203
 21
60.9836
 31
0.0
  0
LINE
  8
0
 62
     0
 10
115.645
 20
61.1145
 30
0.0
 11
115.733
 21
60.1197
 31
0.0
  0
LINE
  8
0
 62
     0
 10
115.733
 20
60.1197
 30
0.0
 11
114.935
 21
60.0495
 31
0.0
  0
LINE
  8
0
 62
     0
 10
114.935
 20
60.0495
 30
0.0
 11
115.207
 21
56.9613
 31
0.0
  0
LINE
  8
0
 62
     0
 10
115.207
 20
56.9613
 30
0.0
 11
116.002
 21
57.0315
 31
0.0
  0
LINE
  8
0
 62
     0
 10
116.002
 20
57.0315
 30
0.0
 11
116.509
 21
51.2533
 31
0.0
  0
LINE
  8
0
 62
     0
 10
116.509
 20
51.2533
 30
0.0
 11
115.711
 21
51.1831
 31
0.0
  0
LINE
  8
0
 62
     0
 10
115.711
 20
51.1831
 30
0.0
 11
115.981
 21
48.0949
 31
0.0
  0
LINE
  8
0
 62
     0
 10
115.981
 20
48.0949
 30
0.0
 11
116.779
 21
48.1651
 31
0.0
  0
LINE
  8
0
 62
     0
 10
116.779
 20
48.1651
 30
0.0
 11
116.866
 21
47.1689
 31
0.0
  0
LINE
  8
0
 62
     0
 10
116.866
 20
47.1689
 30
0.0
 11
130.813
 21
48.3884
 31
0.0
  0
LINE
  8
0
 62
     0
 10
130.813
 20
48.3884
 30
0.0
 11
130.725
 21
49.3847
 31
0.0
  0
LINE
  8
0
 62
     0
 10
130.725
 20
49.3847
 30
0.0
 11
131.523
 21
49.4552
 31
0.0
  0
LINE
  8
0
 62
     0
 10
131.523
 20
49.4552
 30
0.0
 11
131.253
 21
52.5431
 31
0.0
  0
LINE
  8
0
 62
     0
 10
131.253
 20
52.5431
 30
0.0
 11
130.456
 21
52.4729
 31
0.0
  0
LINE
  8
0
 62
     0
 10
130.456
 20
52.4729
 30
0.0
 11
129.949
 21
58.251
 31
0.0
  0
LINE
  8
0
 62
     0
 10
129.949
 20
58.251
 30
0.0
 11
130.747
 21
58.3212
 31
0.0
  0
LINE
  8
0
 62
     0
 10
130.747
 20
58.3212
 30
0.0
 11
130.477
 21
61.4094
 31
0.0
  0
LINE
  8
0
 62
     0
 10
130.477
 20
61.4094
 30
0.0
 11
129.679
 21
61.3392
 31
0.0
  0
LINE
  8
0
 62
     0
 10
129.679
 20
61.3392
 30
0.0
 11
129.592
 21
62.3355
 31
0.0
  0
LINE
  8
0
 62
     0
 10
129.592
 20
62.3355
 30
0.0
 11
115.645
 21
61.1145
 31
0.0
  0
LINE
  8
0
 62
     0
 10
62.9419
 20
62.6442
 30
0.0
 11
62.1453
 21
62.7133
 31
0.0
  0
LINE
  8
0
 62
     0
 10
62.1453
 20
62.7133
 30
0.0
 11
61.8755
 21
59.6251
 31
0.0
  0
LINE
  8
0
 62
     0
 10
61.8755
 20
59.6251
 30
0.0
 11
62.6731
 21
59.5545
 31
0.0
  0
LINE
  8
0
 62
     0
 10
62.6731
 20
59.5545
 30
0.0
 11
62.1661
 21
53.7767
 31
0.0
  0
LINE
  8
0
 62
     0
 10
62.1661
 20
53.7767
 30
0.0
 11
61.371
 21
53.8469
 31
0.0
  0
LINE
  8
0
 62
     0
 10
61.371
 20
53.8469
 30
0.0
 11
61.0994
 21
50.7587
 31
0.0
  0
LINE
  8
0
 62
     0
 10
61.0994
 20
50.7587
 30
0.0
 11
61.8959
 21
50.6885
 31
0.0
  0
LINE
  8
0
 62
     0
 10
61.8959
 20
50.6885
 30
0.0
 11
61.8091
 21
49.6933
 31
0.0
  0
LINE
  8
0
 62
     0
 10
61.8091
 20
49.6933
 30
0.0
 11
75.7562
 21
48.4724
 31
0.0
  0
LINE
  8
0
 62
     0
 10
75.7562
 20
48.4724
 30
0.0
 11
75.843
 21
49.469
 31
0.0
  0
LINE
  8
0
 62
     0
 10
75.843
 20
49.469
 30
0.0
 11
76.641
 21
49.3984
 31
0.0
  0
LINE
  8
0
 62
     0
 10
76.641
 20
49.3984
 30
0.0
 11
76.9112
 21
52.4866
 31
0.0
  0
LINE
  8
0
 62
     0
 10
76.9112
 20
52.4866
 30
0.0
 11
76.1132
 21
52.5568
 31
0.0
  0
LINE
  8
0
 62
     0
 10
76.1132
 20
52.5568
 30
0.0
 11
76.6191
 21
58.335
 31
0.0
  0
LINE
  8
0
 62
     0
 10
76.6191
 20
58.335
 30
0.0
 11
77.4167
 21
58.2648
 31
0.0
  0
LINE
  8
0
 62
     0
 10
77.4167
 20
58.2648
 30
0.0
 11
77.687
 21
61.3544
 31
0.0
  0
LINE
  8
0
 62
     0
 10
77.687
 20
61.3544
 30
0.0
 11
76.889
 21
61.4232
 31
0.0
  0
LINE
  8
0
 62
     0
 10
76.889
 20
61.4232
 30
0.0
 11
76.9758
 21
62.4198
 31
0.0
  0
LINE
  8
0
 62
     0
 10
76.9758
 20
62.4198
 30
0.0
 11
63.0301
 21
63.6404
 31
0.0
  0
LINE
  8
0
 62
     0
 10
63.0301
 20
63.6404
 30
0.0
 11
62.9419
 21
62.6442
 31
0.0
  0
LINE
  8
0
 62
     0
 10
134.623
 20
62.7765
 30
0.0
 11
134.71
 21
61.7802
 31
0.0
  0
LINE
  8
0
 62
     0
 10
134.71
 20
61.7802
 30
0.0
 11
133.914
 21
61.71
 31
0.0
  0
LINE
  8
0
 62
     0
 10
133.914
 20
61.71
 30
0.0
 11
134.184
 21
58.6218
 31
0.0
  0
LINE
  8
0
 62
     0
 10
134.184
 20
58.6218
 30
0.0
 11
134.98
 21
58.6906
 31
0.0
  0
LINE
  8
0
 62
     0
 10
134.98
 20
58.6906
 30
0.0
 11
135.486
 21
52.9124
 31
0.0
  0
LINE
  8
0
 62
     0
 10
135.486
 20
52.9124
 30
0.0
 11
134.689
 21
52.8436
 31
0.0
  0
LINE
  8
0
 62
     0
 10
134.689
 20
52.8436
 30
0.0
 11
134.96
 21
49.7554
 31
0.0
  0
LINE
  8
0
 62
     0
 10
134.96
 20
49.7554
 30
0.0
 11
135.756
 21
49.8256
 31
0.0
  0
LINE
  8
0
 62
     0
 10
135.756
 20
49.8256
 30
0.0
 11
135.843
 21
48.8294
 31
0.0
  0
LINE
  8
0
 62
     0
 10
135.843
 20
48.8294
 30
0.0
 11
149.79
 21
50.0489
 31
0.0
  0
LINE
  8
0
 62
     0
 10
149.79
 20
50.0489
 30
0.0
 11
149.702
 21
51.0452
 31
0.0
  0
LINE
  8
0
 62
     0
 10
149.702
 20
51.0452
 30
0.0
 11
150.5
 21
51.1157
 31
0.0
  0
LINE
  8
0
 62
     0
 10
150.5
 20
51.1157
 30
0.0
 11
150.23
 21
54.2036
 31
0.0
  0
LINE
  8
0
 62
     0
 10
150.23
 20
54.2036
 30
0.0
 11
149.433
 21
54.1334
 31
0.0
  0
LINE
  8
0
 62
     0
 10
149.433
 20
54.1334
 30
0.0
 11
148.927
 21
59.9115
 31
0.0
  0
LINE
  8
0
 62
     0
 10
148.927
 20
59.9115
 30
0.0
 11
149.724
 21
59.9803
 31
0.0
  0
LINE
  8
0
 62
     0
 10
149.724
 20
59.9803
 30
0.0
 11
149.454
 21
63.0686
 31
0.0
  0
LINE
  8
0
 62
     0
 10
149.454
 20
63.0686
 30
0.0
 11
148.657
 21
62.9998
 31
0.0
  0
LINE
  8
0
 62
     0
 10
148.657
 20
62.9998
 30
0.0
 11
148.569
 21
63.996
 31
0.0
  0
LINE
  8
0
 62
     0
 10
148.569
 20
63.996
 30
0.0
 11
134.623
 21
62.7765
 31
0.0
  0
LINE
  8
0
 62
     0
 10
43.9649
 20
64.3033
 30
0.0
 11
43.1684
 21
64.3738
 31
0.0
  0
LINE
  8
0
 62
     0
 10
43.1684
 20
64.3738
 30
0.0
 11
42.8985
 21
61.2856
 31
0.0
  0
LINE
  8
0
 62
     0
 10
42.8985
 20
61.2856
 30
0.0
 11
43.6947
 21
61.2165
 31
0.0
  0
LINE
  8
0
 62
     0
 10
43.6947
 20
61.2165
 30
0.0
 11
43.1892
 21
55.4383
 31
0.0
  0
LINE
  8
0
 62
     0
 10
43.1892
 20
55.4383
 30
0.0
 11
42.3926
 21
55.5075
 31
0.0
  0
LINE
  8
0
 62
     0
 10
42.3926
 20
55.5075
 30
0.0
 11
42.1224
 21
52.4192
 31
0.0
  0
LINE
  8
0
 62
     0
 10
42.1224
 20
52.4192
 30
0.0
 11
42.9189
 21
52.3505
 31
0.0
  0
LINE
  8
0
 62
     0
 10
42.9189
 20
52.3505
 30
0.0
 11
42.8322
 21
51.3524
 31
0.0
  0
LINE
  8
0
 62
     0
 10
42.8322
 20
51.3524
 30
0.0
 11
56.7778
 21
50.1329
 31
0.0
  0
LINE
  8
0
 62
     0
 10
56.7778
 20
50.1329
 30
0.0
 11
56.866
 21
51.1295
 31
0.0
  0
LINE
  8
0
 62
     0
 10
56.866
 20
51.1295
 30
0.0
 11
57.6626
 21
51.0604
 31
0.0
  0
LINE
  8
0
 62
     0
 10
57.6626
 20
51.0604
 30
0.0
 11
57.9342
 21
54.1486
 31
0.0
  0
LINE
  8
0
 62
     0
 10
57.9342
 20
54.1486
 30
0.0
 11
57.1362
 21
54.2177
 31
0.0
  0
LINE
  8
0
 62
     0
 10
57.1362
 20
54.2177
 30
0.0
 11
57.6421
 21
59.9955
 31
0.0
  0
LINE
  8
0
 62
     0
 10
57.6421
 20
59.9955
 30
0.0
 11
58.4383
 21
59.9267
 31
0.0
  0
LINE
  8
0
 62
     0
 10
58.4383
 20
59.9267
 30
0.0
 11
58.7086
 21
63.0135
 31
0.0
  0
LINE
  8
0
 62
     0
 10
58.7086
 20
63.0135
 30
0.0
 11
57.912
 21
63.0837
 31
0.0
  0
LINE
  8
0
 62
     0
 10
57.912
 20
63.0837
 30
0.0
 11
57.9988
 21
64.0803
 31
0.0
  0
LINE
  8
0
 62
     0
 10
57.9988
 20
64.0803
 30
0.0
 11
44.0531
 21
65.2999
 31
0.0
  0
LINE
  8
0
 62
     0
 10
44.0531
 20
65.2999
 30
0.0
 11
43.9649
 21
64.3033
 31
0.0
  0
LINE
  8
0
 62
     0
 10
153.6
 20
64.4356
 30
0.0
 11
153.687
 21
63.4407
 31
0.0
  0
LINE
  8
0
 62
     0
 10
153.687
 20
63.4407
 30
0.0
 11
152.891
 21
63.3705
 31
0.0
  0
LINE
  8
0
 62
     0
 10
152.891
 20
63.3705
 30
0.0
 11
153.162
 21
60.2823
 31
0.0
  0
LINE
  8
0
 62
     0
 10
153.162
 20
60.2823
 30
0.0
 11
153.957
 21
60.3525
 31
0.0
  0
LINE
  8
0
 62
     0
 10
153.957
 20
60.3525
 30
0.0
 11
154.463
 21
54.5744
 31
0.0
  0
LINE
  8
0
 62
     0
 10
154.463
 20
54.5744
 30
0.0
 11
153.666
 21
54.5042
 31
0.0
  0
LINE
  8
0
 62
     0
 10
153.666
 20
54.5042
 30
0.0
 11
153.936
 21
51.416
 31
0.0
  0
LINE
  8
0
 62
     0
 10
153.936
 20
51.416
 30
0.0
 11
154.733
 21
51.4847
 31
0.0
  0
LINE
  8
0
 62
     0
 10
154.733
 20
51.4847
 30
0.0
 11
154.82
 21
50.4885
 31
0.0
  0
LINE
  8
0
 62
     0
 10
154.82
 20
50.4885
 30
0.0
 11
168.767
 21
51.7095
 31
0.0
  0
LINE
  8
0
 62
     0
 10
168.767
 20
51.7095
 30
0.0
 11
168.68
 21
52.7057
 31
0.0
  0
LINE
  8
0
 62
     0
 10
168.68
 20
52.7057
 30
0.0
 11
169.478
 21
52.7749
 31
0.0
  0
LINE
  8
0
 62
     0
 10
169.478
 20
52.7749
 30
0.0
 11
169.208
 21
55.8641
 31
0.0
  0
LINE
  8
0
 62
     0
 10
169.208
 20
55.8641
 30
0.0
 11
168.41
 21
55.7939
 31
0.0
  0
LINE
  8
0
 62
     0
 10
168.41
 20
55.7939
 30
0.0
 11
167.904
 21
61.5721
 31
0.0
  0
LINE
  8
0
 62
     0
 10
167.904
 20
61.5721
 30
0.0
 11
168.701
 21
61.6423
 31
0.0
  0
LINE
  8
0
 62
     0
 10
168.701
 20
61.6423
 30
0.0
 11
168.432
 21
64.7305
 31
0.0
  0
LINE
  8
0
 62
     0
 10
168.432
 20
64.7305
 30
0.0
 11
167.634
 21
64.6603
 31
0.0
  0
LINE
  8
0
 62
     0
 10
167.634
 20
64.6603
 30
0.0
 11
167.548
 21
65.6565
 31
0.0
  0
LINE
  8
0
 62
     0
 10
167.548
 20
65.6565
 30
0.0
 11
153.6
 21
64.4356
 31
0.0
  0
LINE
  8
0
 62
     0
 10
24.988
 20
65.9638
 30
0.0
 11
24.1901
 21
66.0344
 31
0.0
  0
LINE
  8
0
 62
     0
 10
24.1901
 20
66.0344
 30
0.0
 11
23.92
 21
62.9461
 31
0.0
  0
LINE
  8
0
 62
     0
 10
23.92
 20
62.9461
 30
0.0
 11
24.7179
 21
62.8756
 31
0.0
  0
LINE
  8
0
 62
     0
 10
24.7179
 20
62.8756
 30
0.0
 11
24.2121
 21
57.0978
 31
0.0
  0
LINE
  8
0
 62
     0
 10
24.2121
 20
57.0978
 30
0.0
 11
23.4156
 21
57.168
 31
0.0
  0
LINE
  8
0
 62
     0
 10
23.4156
 20
57.168
 30
0.0
 11
23.1442
 21
54.0798
 31
0.0
  0
LINE
  8
0
 62
     0
 10
23.1442
 20
54.0798
 30
0.0
 11
23.942
 21
54.0096
 31
0.0
  0
LINE
  8
0
 62
     0
 10
23.942
 20
54.0096
 30
0.0
 11
23.8538
 21
53.0144
 31
0.0
  0
LINE
  8
0
 62
     0
 10
23.8538
 20
53.0144
 30
0.0
 11
37.8008
 21
51.7934
 31
0.0
  0
LINE
  8
0
 62
     0
 10
37.8008
 20
51.7934
 30
0.0
 11
37.889
 21
52.79
 31
0.0
  0
LINE
  8
0
 62
     0
 10
37.889
 20
52.79
 30
0.0
 11
38.6856
 21
52.7195
 31
0.0
  0
LINE
  8
0
 62
     0
 10
38.6856
 20
52.7195
 30
0.0
 11
38.9558
 21
55.8077
 31
0.0
  0
LINE
  8
0
 62
     0
 10
38.9558
 20
55.8077
 30
0.0
 11
38.1579
 21
55.8782
 31
0.0
  0
LINE
  8
0
 62
     0
 10
38.1579
 20
55.8782
 30
0.0
 11
38.6651
 21
61.656
 31
0.0
  0
LINE
  8
0
 62
     0
 10
38.6651
 20
61.656
 30
0.0
 11
39.4614
 21
61.5858
 31
0.0
  0
LINE
  8
0
 62
     0
 10
39.4614
 20
61.5858
 30
0.0
 11
39.7316
 21
64.674
 31
0.0
  0
LINE
  8
0
 62
     0
 10
39.7316
 20
64.674
 30
0.0
 11
38.935
 21
64.7442
 31
0.0
  0
LINE
  8
0
 62
     0
 10
38.935
 20
64.7442
 30
0.0
 11
39.0218
 21
65.7408
 31
0.0
  0
LINE
  8
0
 62
     0
 10
39.0218
 20
65.7408
 30
0.0
 11
25.0748
 21
66.9604
 31
0.0
  0
LINE
  8
0
 62
     0
 10
25.0748
 20
66.9604
 30
0.0
 11
24.988
 21
65.9638
 31
0.0
  0
LINE
  8
0
 62
     0
 10
172.579
 20
66.0961
 30
0.0
 11
172.665
 21
65.0998
 31
0.0
  0
LINE
  8
0
 62
     0
 10
172.665
 20
65.0998
 30
0.0
 11
171.869
 21
65.0296
 31
0.0
  0
LINE
  8
0
 62
     0
 10
171.869
 20
65.0296
 30
0.0
 11
172.139
 21
61.9414
 31
0.0
  0
LINE
  8
0
 62
     0
 10
172.139
 20
61.9414
 30
0.0
 11
172.936
 21
62.0116
 31
0.0
  0
LINE
  8
0
 62
     0
 10
172.936
 20
62.0116
 30
0.0
 11
173.441
 21
56.2335
 31
0.0
  0
LINE
  8
0
 62
     0
 10
173.441
 20
56.2335
 30
0.0
 11
172.645
 21
56.1647
 31
0.0
  0
LINE
  8
0
 62
     0
 10
172.645
 20
56.1647
 30
0.0
 11
172.915
 21
53.0765
 31
0.0
  0
LINE
  8
0
 62
     0
 10
172.915
 20
53.0765
 30
0.0
 11
173.711
 21
53.1453
 31
0.0
  0
LINE
  8
0
 62
     0
 10
173.711
 20
53.1453
 30
0.0
 11
173.798
 21
52.1504
 31
0.0
  0
LINE
  8
0
 62
     0
 10
173.798
 20
52.1504
 30
0.0
 11
187.745
 21
53.37
 31
0.0
  0
LINE
  8
0
 62
     0
 10
187.745
 20
53.37
 30
0.0
 11
187.657
 21
54.3662
 31
0.0
  0
LINE
  8
0
 62
     0
 10
187.657
 20
54.3662
 30
0.0
 11
188.455
 21
54.4368
 31
0.0
  0
LINE
  8
0
 62
     0
 10
188.455
 20
54.4368
 30
0.0
 11
188.185
 21
57.5236
 31
0.0
  0
LINE
  8
0
 62
     0
 10
188.185
 20
57.5236
 30
0.0
 11
187.387
 21
57.4544
 31
0.0
  0
LINE
  8
0
 62
     0
 10
187.387
 20
57.4544
 30
0.0
 11
186.883
 21
63.2326
 31
0.0
  0
LINE
  8
0
 62
     0
 10
186.883
 20
63.2326
 30
0.0
 11
187.679
 21
63.3017
 31
0.0
  0
LINE
  8
0
 62
     0
 10
187.679
 20
63.3017
 30
0.0
 11
187.409
 21
66.3896
 31
0.0
  0
LINE
  8
0
 62
     0
 10
187.409
 20
66.3896
 30
0.0
 11
186.612
 21
66.3194
 31
0.0
  0
LINE
  8
0
 62
     0
 10
186.612
 20
66.3194
 30
0.0
 11
186.524
 21
67.3171
 31
0.0
  0
LINE
  8
0
 62
     0
 10
186.524
 20
67.3171
 30
0.0
 11
172.579
 21
66.0961
 31
0.0
  0
LINE
  8
0
 62
     0
 10
6.01102
 20
67.6243
 30
0.0
 11
5.2131
 21
67.6949
 31
0.0
  0
LINE
  8
0
 62
     0
 10
5.2131
 20
67.6949
 30
0.0
 11
4.94302
 21
64.6067
 31
0.0
  0
LINE
  8
0
 62
     0
 10
4.94302
 20
64.6067
 30
0.0
 11
5.73952
 21
64.5365
 31
0.0
  0
LINE
  8
0
 62
     0
 10
5.73952
 20
64.5365
 30
0.0
 11
5.23515
 21
58.7583
 31
0.0
  0
LINE
  8
0
 62
     0
 10
5.23515
 20
58.7583
 30
0.0
 11
4.43727
 21
58.8285
 31
0.0
  0
LINE
  8
0
 62
     0
 10
4.43727
 20
58.8285
 30
0.0
 11
4.16719
 21
55.7403
 31
0.0
  0
LINE
  8
0
 62
     0
 10
4.16719
 20
55.7403
 30
0.0
 11
4.96506
 21
55.6701
 31
0.0
  0
LINE
  8
0
 62
     0
 10
4.96506
 20
55.6701
 30
0.0
 11
4.87687
 21
54.6735
 31
0.0
  0
LINE
  8
0
 62
     0
 10
4.87687
 20
54.6735
 30
0.0
 11
18.824
 21
53.4539
 31
0.0
  0
LINE
  8
0
 62
     0
 10
18.824
 20
53.4539
 30
0.0
 11
18.9108
 21
54.4505
 31
0.0
  0
LINE
  8
0
 62
     0
 10
18.9108
 20
54.4505
 30
0.0
 11
19.7073
 21
54.38
 31
0.0
  0
LINE
  8
0
 62
     0
 10
19.7073
 20
54.38
 30
0.0
 11
19.9788
 21
57.4682
 31
0.0
  0
LINE
  8
0
 62
     0
 10
19.9788
 20
57.4682
 30
0.0
 11
19.1809
 21
57.5388
 31
0.0
  0
LINE
  8
0
 62
     0
 10
19.1809
 20
57.5388
 30
0.0
 11
19.6867
 21
63.3166
 31
0.0
  0
LINE
  8
0
 62
     0
 10
19.6867
 20
63.3166
 30
0.0
 11
20.4832
 21
63.2464
 31
0.0
  0
LINE
  8
0
 62
     0
 10
20.4832
 20
63.2464
 30
0.0
 11
20.7532
 21
66.3346
 31
0.0
  0
LINE
  8
0
 62
     0
 10
20.7532
 20
66.3346
 30
0.0
 11
19.9567
 21
66.4034
 31
0.0
  0
LINE
  8
0
 62
     0
 10
19.9567
 20
66.4034
 30
0.0
 11
20.0449
 21
67.4
 31
0.0
  0
LINE
  8
0
 62
     0
 10
20.0449
 20
67.4
 30
0.0
 11
6.09783
 21
68.6223
 31
0.0
  0
LINE
  8
0
 62
     0
 10
6.09783
 20
68.6223
 30
0.0
 11
6.01102
 21
67.6243
 31
0.0
  0
LINE
  8
0
 62
     0
 10
191.556
 20
67.7566
 30
0.0
 11
191.642
 21
66.7604
 31
0.0
  0
LINE
  8
0
 62
     0
 10
191.642
 20
66.7604
 30
0.0
 11
190.846
 21
66.6916
 31
0.0
  0
LINE
  8
0
 62
     0
 10
190.846
 20
66.6916
 30
0.0
 11
191.116
 21
63.6034
 31
0.0
  0
LINE
  8
0
 62
     0
 10
191.116
 20
63.6034
 30
0.0
 11
191.914
 21
63.6722
 31
0.0
  0
LINE
  8
0
 62
     0
 10
191.914
 20
63.6722
 30
0.0
 11
192.418
 21
57.894
 31
0.0
  0
LINE
  8
0
 62
     0
 10
192.418
 20
57.894
 30
0.0
 11
191.622
 21
57.8252
 31
0.0
  0
LINE
  8
0
 62
     0
 10
191.622
 20
57.8252
 30
0.0
 11
191.892
 21
54.7356
 31
0.0
  0
LINE
  8
0
 62
     0
 10
191.892
 20
54.7356
 30
0.0
 11
192.688
 21
54.8058
 31
0.0
  0
LINE
  8
0
 62
     0
 10
192.688
 20
54.8058
 30
0.0
 11
192.775
 21
53.8095
 31
0.0
  0
LINE
  8
0
 62
     0
 10
192.775
 20
53.8095
 30
0.0
 11
206.722
 21
55.0305
 31
0.0
  0
LINE
  8
0
 62
     0
 10
206.722
 20
55.0305
 30
0.0
 11
206.635
 21
56.0257
 31
0.0
  0
LINE
  8
0
 62
     0
 10
206.635
 20
56.0257
 30
0.0
 11
207.432
 21
56.0959
 31
0.0
  0
LINE
  8
0
 62
     0
 10
207.432
 20
56.0959
 30
0.0
 11
207.162
 21
59.1841
 31
0.0
  0
LINE
  8
0
 62
     0
 10
207.162
 20
59.1841
 30
0.0
 11
206.365
 21
59.115
 31
0.0
  0
LINE
  8
0
 62
     0
 10
206.365
 20
59.115
 30
0.0
 11
205.86
 21
64.8917
 31
0.0
  0
LINE
  8
0
 62
     0
 10
205.86
 20
64.8917
 30
0.0
 11
206.656
 21
64.9623
 31
0.0
  0
LINE
  8
0
 62
     0
 10
206.656
 20
64.9623
 30
0.0
 11
206.386
 21
68.0501
 31
0.0
  0
LINE
  8
0
 62
     0
 10
206.386
 20
68.0501
 30
0.0
 11
205.589
 21
67.9813
 31
0.0
  0
LINE
  8
0
 62
     0
 10
205.589
 20
67.9813
 30
0.0
 11
205.503
 21
68.9776
 31
0.0
  0
LINE
  8
0
 62
     0
 10
205.503
 20
68.9776
 30
0.0
 11
191.556
 21
67.7566
 31
0.0
  0
LINE
  8
0
 62
     0
 10
83.5808
 20
79.9606
 30
0.0
 11
82.7828
 21
80.0294
 31
0.0
  0
LINE
  8
0
 62
     0
 10
82.7828
 20
80.0294
 30
0.0
 11
82.514
 21
76.9415
 31
0.0
  0
LINE
  8
0
 62
     0
 10
82.514
 20
76.9415
 30
0.0
 11
83.3106
 21
76.8724
 31
0.0
  0
LINE
  8
0
 62
     0
 10
83.3106
 20
76.8724
 30
0.0
 11
82.8051
 21
71.0957
 31
0.0
  0
LINE
  8
0
 62
     0
 10
82.8051
 20
71.0957
 30
0.0
 11
82.0071
 21
71.1648
 31
0.0
  0
LINE
  8
0
 62
     0
 10
82.0071
 20
71.1648
 30
0.0
 11
81.7369
 21
68.0766
 31
0.0
  0
LINE
  8
0
 62
     0
 10
81.7369
 20
68.0766
 30
0.0
 11
82.5348
 21
68.006
 31
0.0
  0
LINE
  8
0
 62
     0
 10
82.5348
 20
68.006
 30
0.0
 11
82.448
 21
67.0098
 31
0.0
  0
LINE
  8
0
 62
     0
 10
82.448
 20
67.0098
 30
0.0
 11
96.3951
 21
65.7902
 31
0.0
  0
LINE
  8
0
 62
     0
 10
96.3951
 20
65.7902
 30
0.0
 11
96.4819
 21
66.7865
 31
0.0
  0
LINE
  8
0
 62
     0
 10
96.4819
 20
66.7865
 30
0.0
 11
97.2785
 21
66.7163
 31
0.0
  0
LINE
  8
0
 62
     0
 10
97.2785
 20
66.7163
 30
0.0
 11
97.5487
 21
69.8045
 31
0.0
  0
LINE
  8
0
 62
     0
 10
97.5487
 20
69.8045
 30
0.0
 11
96.7521
 21
69.8733
 31
0.0
  0
LINE
  8
0
 62
     0
 10
96.7521
 20
69.8733
 30
0.0
 11
97.2577
 21
75.6514
 31
0.0
  0
LINE
  8
0
 62
     0
 10
97.2577
 20
75.6514
 30
0.0
 11
98.0528
 21
75.5826
 31
0.0
  0
LINE
  8
0
 62
     0
 10
98.0528
 20
75.5826
 30
0.0
 11
98.3245
 21
78.6709
 31
0.0
  0
LINE
  8
0
 62
     0
 10
98.3245
 20
78.6709
 30
0.0
 11
97.5279
 21
78.7411
 31
0.0
  0
LINE
  8
0
 62
     0
 10
97.5279
 20
78.7411
 30
0.0
 11
97.6147
 21
79.7373
 31
0.0
  0
LINE
  8
0
 62
     0
 10
97.6147
 20
79.7373
 30
0.0
 11
83.6676
 21
80.9569
 31
0.0
  0
LINE
  8
0
 62
     0
 10
83.6676
 20
80.9569
 30
0.0
 11
83.5808
 21
79.9606
 31
0.0
  0
LINE
  8
0
 62
     0
 10
113.986
 20
80.0929
 30
0.0
 11
114.072
 21
79.0967
 31
0.0
  0
LINE
  8
0
 62
     0
 10
114.072
 20
79.0967
 30
0.0
 11
113.276
 21
79.0279
 31
0.0
  0
LINE
  8
0
 62
     0
 10
113.276
 20
79.0279
 30
0.0
 11
113.545
 21
75.9396
 31
0.0
  0
LINE
  8
0
 62
     0
 10
113.545
 20
75.9396
 30
0.0
 11
114.343
 21
76.0084
 31
0.0
  0
LINE
  8
0
 62
     0
 10
114.343
 20
76.0084
 30
0.0
 11
114.849
 21
70.2317
 31
0.0
  0
LINE
  8
0
 62
     0
 10
114.849
 20
70.2317
 30
0.0
 11
114.052
 21
70.1615
 31
0.0
  0
LINE
  8
0
 62
     0
 10
114.052
 20
70.1615
 30
0.0
 11
114.322
 21
67.0733
 31
0.0
  0
LINE
  8
0
 62
     0
 10
114.322
 20
67.0733
 30
0.0
 11
115.118
 21
67.1421
 31
0.0
  0
LINE
  8
0
 62
     0
 10
115.118
 20
67.1421
 30
0.0
 11
115.205
 21
66.1458
 31
0.0
  0
LINE
  8
0
 62
     0
 10
115.205
 20
66.1458
 30
0.0
 11
129.153
 21
67.3654
 31
0.0
  0
LINE
  8
0
 62
     0
 10
129.153
 20
67.3654
 30
0.0
 11
129.066
 21
68.363
 31
0.0
  0
LINE
  8
0
 62
     0
 10
129.066
 20
68.363
 30
0.0
 11
129.862
 21
68.4332
 31
0.0
  0
LINE
  8
0
 62
     0
 10
129.862
 20
68.4332
 30
0.0
 11
129.592
 21
71.52
 31
0.0
  0
LINE
  8
0
 62
     0
 10
129.592
 20
71.52
 30
0.0
 11
128.794
 21
71.4513
 31
0.0
  0
LINE
  8
0
 62
     0
 10
128.794
 20
71.4513
 30
0.0
 11
128.29
 21
77.2294
 31
0.0
  0
LINE
  8
0
 62
     0
 10
128.29
 20
77.2294
 30
0.0
 11
129.086
 21
77.2982
 31
0.0
  0
LINE
  8
0
 62
     0
 10
129.086
 20
77.2982
 30
0.0
 11
128.816
 21
80.3864
 31
0.0
  0
LINE
  8
0
 62
     0
 10
128.816
 20
80.3864
 30
0.0
 11
128.02
 21
80.3176
 31
0.0
  0
LINE
  8
0
 62
     0
 10
128.02
 20
80.3176
 30
0.0
 11
127.933
 21
81.3125
 31
0.0
  0
LINE
  8
0
 62
     0
 10
127.933
 20
81.3125
 30
0.0
 11
113.986
 21
80.0929
 31
0.0
  0
LINE
  8
0
 62
     0
 10
64.6024
 20
81.6211
 30
0.0
 11
63.8059
 21
81.6913
 31
0.0
  0
LINE
  8
0
 62
     0
 10
63.8059
 20
81.6913
 30
0.0
 11
63.536
 21
78.6035
 31
0.0
  0
LINE
  8
0
 62
     0
 10
63.536
 20
78.6035
 30
0.0
 11
64.3322
 21
78.5329
 31
0.0
  0
LINE
  8
0
 62
     0
 10
64.3322
 20
78.5329
 30
0.0
 11
63.8281
 21
72.7548
 31
0.0
  0
LINE
  8
0
 62
     0
 10
63.8281
 20
72.7548
 30
0.0
 11
63.0301
 21
72.8253
 31
0.0
  0
LINE
  8
0
 62
     0
 10
63.0301
 20
72.8253
 30
0.0
 11
62.7599
 21
69.7357
 31
0.0
  0
LINE
  8
0
 62
     0
 10
62.7599
 20
69.7357
 30
0.0
 11
63.5579
 21
69.6666
 31
0.0
  0
LINE
  8
0
 62
     0
 10
63.5579
 20
69.6666
 30
0.0
 11
63.4697
 21
68.6703
 31
0.0
  0
LINE
  8
0
 62
     0
 10
63.4697
 20
68.6703
 30
0.0
 11
77.4167
 21
67.4494
 31
0.0
  0
LINE
  8
0
 62
     0
 10
77.4167
 20
67.4494
 30
0.0
 11
77.5035
 21
68.4484
 31
0.0
  0
LINE
  8
0
 62
     0
 10
77.5035
 20
68.4484
 30
0.0
 11
78.3001
 21
68.3782
 31
0.0
  0
LINE
  8
0
 62
     0
 10
78.3001
 20
68.3782
 30
0.0
 11
78.5703
 21
71.465
 31
0.0
  0
LINE
  8
0
 62
     0
 10
78.5703
 20
71.465
 30
0.0
 11
77.7752
 21
71.5352
 31
0.0
  0
LINE
  8
0
 62
     0
 10
77.7752
 20
71.5352
 30
0.0
 11
78.2796
 21
77.3134
 31
0.0
  0
LINE
  8
0
 62
     0
 10
78.2796
 20
77.3134
 30
0.0
 11
79.0758
 21
77.2432
 31
0.0
  0
LINE
  8
0
 62
     0
 10
79.0758
 20
77.2432
 30
0.0
 11
79.3461
 21
80.3314
 31
0.0
  0
LINE
  8
0
 62
     0
 10
79.3461
 20
80.3314
 30
0.0
 11
78.5495
 21
80.4016
 31
0.0
  0
LINE
  8
0
 62
     0
 10
78.5495
 20
80.4016
 30
0.0
 11
78.6363
 21
81.3964
 31
0.0
  0
LINE
  8
0
 62
     0
 10
78.6363
 20
81.3964
 30
0.0
 11
64.6906
 21
82.6174
 31
0.0
  0
LINE
  8
0
 62
     0
 10
64.6906
 20
82.6174
 30
0.0
 11
64.6024
 21
81.6211
 31
0.0
  0
LINE
  8
0
 62
     0
 10
132.963
 20
81.7534
 30
0.0
 11
133.049
 21
80.7572
 31
0.0
  0
LINE
  8
0
 62
     0
 10
133.049
 20
80.7572
 30
0.0
 11
132.253
 21
80.687
 31
0.0
  0
LINE
  8
0
 62
     0
 10
132.253
 20
80.687
 30
0.0
 11
132.523
 21
77.5988
 31
0.0
  0
LINE
  8
0
 62
     0
 10
132.523
 20
77.5988
 30
0.0
 11
133.321
 21
77.669
 31
0.0
  0
LINE
  8
0
 62
     0
 10
133.321
 20
77.669
 30
0.0
 11
133.826
 21
71.8908
 31
0.0
  0
LINE
  8
0
 62
     0
 10
133.826
 20
71.8908
 30
0.0
 11
133.029
 21
71.8206
 31
0.0
  0
LINE
  8
0
 62
     0
 10
133.029
 20
71.8206
 30
0.0
 11
133.299
 21
68.7324
 31
0.0
  0
LINE
  8
0
 62
     0
 10
133.299
 20
68.7324
 30
0.0
 11
134.095
 21
68.8026
 31
0.0
  0
LINE
  8
0
 62
     0
 10
134.095
 20
68.8026
 30
0.0
 11
134.184
 21
67.8064
 31
0.0
  0
LINE
  8
0
 62
     0
 10
134.184
 20
67.8064
 30
0.0
 11
148.13
 21
69.0273
 31
0.0
  0
LINE
  8
0
 62
     0
 10
148.13
 20
69.0273
 30
0.0
 11
148.042
 21
70.0236
 31
0.0
  0
LINE
  8
0
 62
     0
 10
148.042
 20
70.0236
 30
0.0
 11
148.839
 21
70.0927
 31
0.0
  0
LINE
  8
0
 62
     0
 10
148.839
 20
70.0927
 30
0.0
 11
148.569
 21
73.1806
 31
0.0
  0
LINE
  8
0
 62
     0
 10
148.569
 20
73.1806
 30
0.0
 11
147.773
 21
73.1104
 31
0.0
  0
LINE
  8
0
 62
     0
 10
147.773
 20
73.1104
 30
0.0
 11
147.267
 21
78.8885
 31
0.0
  0
LINE
  8
0
 62
     0
 10
147.267
 20
78.8885
 30
0.0
 11
148.063
 21
78.9587
 31
0.0
  0
LINE
  8
0
 62
     0
 10
148.063
 20
78.9587
 30
0.0
 11
147.793
 21
82.0469
 31
0.0
  0
LINE
  8
0
 62
     0
 10
147.793
 20
82.0469
 30
0.0
 11
146.997
 21
81.9767
 31
0.0
  0
LINE
  8
0
 62
     0
 10
146.997
 20
81.9767
 30
0.0
 11
146.91
 21
82.973
 31
0.0
  0
LINE
  8
0
 62
     0
 10
146.91
 20
82.973
 30
0.0
 11
132.963
 21
81.7534
 31
0.0
  0
LINE
  8
0
 62
     0
 10
45.6255
 20
83.2817
 30
0.0
 11
44.8289
 21
83.3508
 31
0.0
  0
LINE
  8
0
 62
     0
 10
44.8289
 20
83.3508
 30
0.0
 11
44.559
 21
80.2626
 31
0.0
  0
LINE
  8
0
 62
     0
 10
44.559
 20
80.2626
 30
0.0
 11
45.3552
 21
80.1934
 31
0.0
  0
LINE
  8
0
 62
     0
 10
45.3552
 20
80.1934
 30
0.0
 11
44.8497
 21
74.4153
 31
0.0
  0
LINE
  8
0
 62
     0
 10
44.8497
 20
74.4153
 30
0.0
 11
44.0531
 21
74.4859
 31
0.0
  0
LINE
  8
0
 62
     0
 10
44.0531
 20
74.4859
 30
0.0
 11
43.7829
 21
71.3976
 31
0.0
  0
LINE
  8
0
 62
     0
 10
43.7829
 20
71.3976
 30
0.0
 11
44.5795
 21
71.3274
 31
0.0
  0
LINE
  8
0
 62
     0
 10
44.5795
 20
71.3274
 30
0.0
 11
44.4927
 21
70.3308
 31
0.0
  0
LINE
  8
0
 62
     0
 10
44.4927
 20
70.3308
 30
0.0
 11
58.4398
 21
69.1113
 31
0.0
  0
LINE
  8
0
 62
     0
 10
58.4398
 20
69.1113
 30
0.0
 11
58.5265
 21
70.1075
 31
0.0
  0
LINE
  8
0
 62
     0
 10
58.5265
 20
70.1075
 30
0.0
 11
59.3231
 21
70.0373
 31
0.0
  0
LINE
  8
0
 62
     0
 10
59.3231
 20
70.0373
 30
0.0
 11
59.5933
 21
73.1255
 31
0.0
  0
LINE
  8
0
 62
     0
 10
59.5933
 20
73.1255
 30
0.0
 11
58.7968
 21
73.1943
 31
0.0
  0
LINE
  8
0
 62
     0
 10
58.7968
 20
73.1943
 30
0.0
 11
59.3012
 21
78.9725
 31
0.0
  0
LINE
  8
0
 62
     0
 10
59.3012
 20
78.9725
 30
0.0
 11
60.0989
 21
78.9037
 31
0.0
  0
LINE
  8
0
 62
     0
 10
60.0989
 20
78.9037
 30
0.0
 11
60.3691
 21
81.9905
 31
0.0
  0
LINE
  8
0
 62
     0
 10
60.3691
 20
81.9905
 30
0.0
 11
59.5725
 21
82.0607
 31
0.0
  0
LINE
  8
0
 62
     0
 10
59.5725
 20
82.0607
 30
0.0
 11
59.6579
 21
83.0573
 31
0.0
  0
LINE
  8
0
 62
     0
 10
59.6579
 20
83.0573
 30
0.0
 11
45.7122
 21
84.2779
 31
0.0
  0
LINE
  8
0
 62
     0
 10
45.7122
 20
84.2779
 30
0.0
 11
45.6255
 21
83.2817
 31
0.0
  0
LINE
  8
0
 62
     0
 10
151.941
 20
83.414
 30
0.0
 11
152.028
 21
82.4177
 31
0.0
  0
LINE
  8
0
 62
     0
 10
152.028
 20
82.4177
 30
0.0
 11
151.23
 21
82.3475
 31
0.0
  0
LINE
  8
0
 62
     0
 10
151.23
 20
82.3475
 30
0.0
 11
151.5
 21
79.2593
 31
0.0
  0
LINE
  8
0
 62
     0
 10
151.5
 20
79.2593
 30
0.0
 11
152.298
 21
79.3295
 31
0.0
  0
LINE
  8
0
 62
     0
 10
152.298
 20
79.3295
 30
0.0
 11
152.804
 21
73.5513
 31
0.0
  0
LINE
  8
0
 62
     0
 10
152.804
 20
73.5513
 30
0.0
 11
152.006
 21
73.4811
 31
0.0
  0
LINE
  8
0
 62
     0
 10
152.006
 20
73.4811
 30
0.0
 11
152.276
 21
70.3929
 31
0.0
  0
LINE
  8
0
 62
     0
 10
152.276
 20
70.3929
 30
0.0
 11
153.074
 21
70.4631
 31
0.0
  0
LINE
  8
0
 62
     0
 10
153.074
 20
70.4631
 30
0.0
 11
153.161
 21
69.4669
 31
0.0
  0
LINE
  8
0
 62
     0
 10
153.161
 20
69.4669
 30
0.0
 11
167.108
 21
70.6864
 31
0.0
  0
LINE
  8
0
 62
     0
 10
167.108
 20
70.6864
 30
0.0
 11
167.021
 21
71.6827
 31
0.0
  0
LINE
  8
0
 62
     0
 10
167.021
 20
71.6827
 30
0.0
 11
167.817
 21
71.7532
 31
0.0
  0
LINE
  8
0
 62
     0
 10
167.817
 20
71.7532
 30
0.0
 11
167.546
 21
74.8411
 31
0.0
  0
LINE
  8
0
 62
     0
 10
167.546
 20
74.8411
 30
0.0
 11
166.75
 21
74.7709
 31
0.0
  0
LINE
  8
0
 62
     0
 10
166.75
 20
74.7709
 30
0.0
 11
166.245
 21
80.549
 31
0.0
  0
LINE
  8
0
 62
     0
 10
166.245
 20
80.549
 30
0.0
 11
167.042
 21
80.6192
 31
0.0
  0
LINE
  8
0
 62
     0
 10
167.042
 20
80.6192
 30
0.0
 11
166.771
 21
83.7075
 31
0.0
  0
LINE
  8
0
 62
     0
 10
166.771
 20
83.7075
 30
0.0
 11
165.975
 21
83.6387
 31
0.0
  0
LINE
  8
0
 62
     0
 10
165.975
 20
83.6387
 30
0.0
 11
165.887
 21
84.6335
 31
0.0
  0
LINE
  8
0
 62
     0
 10
165.887
 20
84.6335
 30
0.0
 11
151.941
 21
83.414
 31
0.0
  0
LINE
  8
0
 62
     0
 10
26.6471
 20
84.9422
 30
0.0
 11
25.852
 21
85.0113
 31
0.0
  0
LINE
  8
0
 62
     0
 10
25.852
 20
85.0113
 30
0.0
 11
25.5805
 21
81.9231
 31
0.0
  0
LINE
  8
0
 62
     0
 10
25.5805
 20
81.9231
 30
0.0
 11
26.377
 21
81.8526
 31
0.0
  0
LINE
  8
0
 62
     0
 10
26.377
 20
81.8526
 30
0.0
 11
25.8727
 21
76.0758
 31
0.0
  0
LINE
  8
0
 62
     0
 10
25.8727
 20
76.0758
 30
0.0
 11
25.0762
 21
76.145
 31
0.0
  0
LINE
  8
0
 62
     0
 10
25.0762
 20
76.145
 30
0.0
 11
24.8061
 21
73.0567
 31
0.0
  0
LINE
  8
0
 62
     0
 10
24.8061
 20
73.0567
 30
0.0
 11
25.6026
 21
72.9865
 31
0.0
  0
LINE
  8
0
 62
     0
 10
25.6026
 20
72.9865
 30
0.0
 11
25.5144
 21
71.9914
 31
0.0
  0
LINE
  8
0
 62
     0
 10
25.5144
 20
71.9914
 30
0.0
 11
39.4614
 21
70.7704
 31
0.0
  0
LINE
  8
0
 62
     0
 10
39.4614
 20
70.7704
 30
0.0
 11
39.5482
 21
71.767
 31
0.0
  0
LINE
  8
0
 62
     0
 10
39.5482
 20
71.767
 30
0.0
 11
40.3447
 21
71.6964
 31
0.0
  0
LINE
  8
0
 62
     0
 10
40.3447
 20
71.6964
 30
0.0
 11
40.615
 21
74.7861
 31
0.0
  0
LINE
  8
0
 62
     0
 10
40.615
 20
74.7861
 30
0.0
 11
39.8198
 21
74.8552
 31
0.0
  0
LINE
  8
0
 62
     0
 10
39.8198
 20
74.8552
 30
0.0
 11
40.3243
 21
80.633
 31
0.0
  0
LINE
  8
0
 62
     0
 10
40.3243
 20
80.633
 30
0.0
 11
41.1219
 21
80.5642
 31
0.0
  0
LINE
  8
0
 62
     0
 10
41.1219
 20
80.5642
 30
0.0
 11
41.3921
 21
83.6524
 31
0.0
  0
LINE
  8
0
 62
     0
 10
41.3921
 20
83.6524
 30
0.0
 11
40.5941
 21
83.7212
 31
0.0
  0
LINE
  8
0
 62
     0
 10
40.5941
 20
83.7212
 30
0.0
 11
40.6809
 21
84.7178
 31
0.0
  0
LINE
  8
0
 62
     0
 10
40.6809
 20
84.7178
 30
0.0
 11
26.7353
 21
85.9384
 31
0.0
  0
LINE
  8
0
 62
     0
 10
26.7353
 20
85.9384
 30
0.0
 11
26.6471
 21
84.9422
 31
0.0
  0
LINE
  8
0
 62
     0
 10
170.918
 20
85.0745
 30
0.0
 11
171.005
 21
84.0782
 31
0.0
  0
LINE
  8
0
 62
     0
 10
171.005
 20
84.0782
 30
0.0
 11
170.208
 21
84.008
 31
0.0
  0
LINE
  8
0
 62
     0
 10
170.208
 20
84.008
 30
0.0
 11
170.478
 21
80.9198
 31
0.0
  0
LINE
  8
0
 62
     0
 10
170.478
 20
80.9198
 30
0.0
 11
171.275
 21
80.9886
 31
0.0
  0
LINE
  8
0
 62
     0
 10
171.275
 20
80.9886
 30
0.0
 11
171.781
 21
75.2119
 31
0.0
  0
LINE
  8
0
 62
     0
 10
171.781
 20
75.2119
 30
0.0
 11
170.983
 21
75.1417
 31
0.0
  0
LINE
  8
0
 62
     0
 10
170.983
 20
75.1417
 30
0.0
 11
171.253
 21
72.0535
 31
0.0
  0
LINE
  8
0
 62
     0
 10
171.253
 20
72.0535
 30
0.0
 11
172.051
 21
72.1222
 31
0.0
  0
LINE
  8
0
 62
     0
 10
172.051
 20
72.1222
 30
0.0
 11
172.139
 21
71.1274
 31
0.0
  0
LINE
  8
0
 62
     0
 10
172.139
 20
71.1274
 30
0.0
 11
186.085
 21
72.347
 31
0.0
  0
LINE
  8
0
 62
     0
 10
186.085
 20
72.347
 30
0.0
 11
185.998
 21
73.3432
 31
0.0
  0
LINE
  8
0
 62
     0
 10
185.998
 20
73.3432
 30
0.0
 11
186.794
 21
73.4138
 31
0.0
  0
LINE
  8
0
 62
     0
 10
186.794
 20
73.4138
 30
0.0
 11
186.524
 21
76.5006
 31
0.0
  0
LINE
  8
0
 62
     0
 10
186.524
 20
76.5006
 30
0.0
 11
185.728
 21
76.4314
 31
0.0
  0
LINE
  8
0
 62
     0
 10
185.728
 20
76.4314
 30
0.0
 11
185.222
 21
82.2096
 31
0.0
  0
LINE
  8
0
 62
     0
 10
185.222
 20
82.2096
 30
0.0
 11
186.019
 21
82.2784
 31
0.0
  0
LINE
  8
0
 62
     0
 10
186.019
 20
82.2784
 30
0.0
 11
185.748
 21
85.368
 31
0.0
  0
LINE
  8
0
 62
     0
 10
185.748
 20
85.368
 30
0.0
 11
184.952
 21
85.2978
 31
0.0
  0
LINE
  8
0
 62
     0
 10
184.952
 20
85.2978
 30
0.0
 11
184.864
 21
86.294
 31
0.0
  0
LINE
  8
0
 62
     0
 10
184.864
 20
86.294
 30
0.0
 11
170.918
 21
85.0745
 31
0.0
  0
LINE
  8
0
 62
     0
 10
7.67017
 20
86.6013
 30
0.0
 11
6.87366
 21
86.6719
 31
0.0
  0
LINE
  8
0
 62
     0
 10
6.87366
 20
86.6719
 30
0.0
 11
6.60358
 21
83.5836
 31
0.0
  0
LINE
  8
0
 62
     0
 10
6.60358
 20
83.5836
 30
0.0
 11
7.40008
 21
83.5145
 31
0.0
  0
LINE
  8
0
 62
     0
 10
7.40008
 20
83.5145
 30
0.0
 11
6.89434
 21
77.7363
 31
0.0
  0
LINE
  8
0
 62
     0
 10
6.89434
 20
77.7363
 30
0.0
 11
6.09783
 21
77.8055
 31
0.0
  0
LINE
  8
0
 62
     0
 10
6.09783
 20
77.8055
 30
0.0
 11
5.82771
 21
74.7173
 31
0.0
  0
LINE
  8
0
 62
     0
 10
5.82771
 20
74.7173
 30
0.0
 11
6.62421
 21
74.6485
 31
0.0
  0
LINE
  8
0
 62
     0
 10
6.62421
 20
74.6485
 30
0.0
 11
6.53743
 21
73.6505
 31
0.0
  0
LINE
  8
0
 62
     0
 10
6.53743
 20
73.6505
 30
0.0
 11
20.4845
 21
72.4309
 31
0.0
  0
LINE
  8
0
 62
     0
 10
20.4845
 20
72.4309
 30
0.0
 11
20.5714
 21
73.4275
 31
0.0
  0
LINE
  8
0
 62
     0
 10
20.5714
 20
73.4275
 30
0.0
 11
21.3679
 21
73.3584
 31
0.0
  0
LINE
  8
0
 62
     0
 10
21.3679
 20
73.3584
 30
0.0
 11
21.6379
 21
76.4466
 31
0.0
  0
LINE
  8
0
 62
     0
 10
21.6379
 20
76.4466
 30
0.0
 11
20.8414
 21
76.5157
 31
0.0
  0
LINE
  8
0
 62
     0
 10
20.8414
 20
76.5157
 30
0.0
 11
21.3458
 21
82.2935
 31
0.0
  0
LINE
  8
0
 62
     0
 10
21.3458
 20
82.2935
 30
0.0
 11
22.1437
 21
82.2233
 31
0.0
  0
LINE
  8
0
 62
     0
 10
22.1437
 20
82.2233
 30
0.0
 11
22.4152
 21
85.3115
 31
0.0
  0
LINE
  8
0
 62
     0
 10
22.4152
 20
85.3115
 30
0.0
 11
21.6173
 21
85.3817
 31
0.0
  0
LINE
  8
0
 62
     0
 10
21.6173
 20
85.3817
 30
0.0
 11
21.7041
 21
86.3783
 31
0.0
  0
LINE
  8
0
 62
     0
 10
21.7041
 20
86.3783
 30
0.0
 11
7.75698
 21
87.5979
 31
0.0
  0
LINE
  8
0
 62
     0
 10
7.75698
 20
87.5979
 30
0.0
 11
7.67017
 21
86.6013
 31
0.0
  0
LINE
  8
0
 62
     0
 10
189.895
 20
86.7336
 30
0.0
 11
189.982
 21
85.7373
 31
0.0
  0
LINE
  8
0
 62
     0
 10
189.982
 20
85.7373
 30
0.0
 11
189.185
 21
85.6686
 31
0.0
  0
LINE
  8
0
 62
     0
 10
189.185
 20
85.6686
 30
0.0
 11
189.455
 21
82.5803
 31
0.0
  0
LINE
  8
0
 62
     0
 10
189.455
 20
82.5803
 30
0.0
 11
190.252
 21
82.6505
 31
0.0
  0
LINE
  8
0
 62
     0
 10
190.252
 20
82.6505
 30
0.0
 11
190.759
 21
76.8724
 31
0.0
  0
LINE
  8
0
 62
     0
 10
190.759
 20
76.8724
 30
0.0
 11
189.961
 21
76.8022
 31
0.0
  0
LINE
  8
0
 62
     0
 10
189.961
 20
76.8022
 30
0.0
 11
190.231
 21
73.714
 31
0.0
  0
LINE
  8
0
 62
     0
 10
190.231
 20
73.714
 30
0.0
 11
191.029
 21
73.7842
 31
0.0
  0
LINE
  8
0
 62
     0
 10
191.029
 20
73.7842
 30
0.0
 11
191.116
 21
72.7865
 31
0.0
  0
LINE
  8
0
 62
     0
 10
191.116
 20
72.7865
 30
0.0
 11
205.063
 21
74.0075
 31
0.0
  0
LINE
  8
0
 62
     0
 10
205.063
 20
74.0075
 30
0.0
 11
204.975
 21
75.0037
 31
0.0
  0
LINE
  8
0
 62
     0
 10
204.975
 20
75.0037
 30
0.0
 11
205.773
 21
75.0743
 31
0.0
  0
LINE
  8
0
 62
     0
 10
205.773
 20
75.0743
 30
0.0
 11
205.501
 21
78.1625
 31
0.0
  0
LINE
  8
0
 62
     0
 10
205.501
 20
78.1625
 30
0.0
 11
204.705
 21
78.0919
 31
0.0
  0
LINE
  8
0
 62
     0
 10
204.705
 20
78.0919
 30
0.0
 11
204.199
 21
83.8701
 31
0.0
  0
LINE
  8
0
 62
     0
 10
204.199
 20
83.8701
 30
0.0
 11
204.997
 21
83.9403
 31
0.0
  0
LINE
  8
0
 62
     0
 10
204.997
 20
83.9403
 30
0.0
 11
204.727
 21
87.0285
 31
0.0
  0
LINE
  8
0
 62
     0
 10
204.727
 20
87.0285
 30
0.0
 11
203.929
 21
86.9583
 31
0.0
  0
LINE
  8
0
 62
     0
 10
203.929
 20
86.9583
 30
0.0
 11
203.842
 21
87.9546
 31
0.0
  0
LINE
  8
0
 62
     0
 10
203.842
 20
87.9546
 30
0.0
 11
189.895
 21
86.7336
 31
0.0
  0
ENDSEC
  0
EOF
