  0
SECTION
  2
HEADER
  9
$ACADVER
  1
AC1009
  9
$FILLMODE
 70
 0
  9
$SPLFRAME
 70
 1
  9
$EXTMIN
 10
0
 20
0
 30
0.0
  9
$EXTMAX
 10
1058.33
 20
1058.33
 30
0.0
  0
ENDSEC
  0
SECTION
  2
TABLES
  0
TABLE
  2
LAYER
 70
1
  0
LAYER
  2
0
 70
     0
 62
     7
  6
CONTINUOUS
  0
ENDTAB
  0
ENDSEC
  0
SECTION
  2
ENTITIES
  0
LINE
  8
0
 62
     0
 10
197.12
 20
95.8603
 30
0.0
 11
198.297
 21
95.8137
 31
0.0
  0
LINE
  8
0
 62
     0
 10
198.297
 20
95.8137
 30
0.0
 11
199.465
 21
95.6758
 31
0.0
  0
LINE
  8
0
 62
     0
 10
199.465
 20
95.6758
 30
0.0
 11
200.622
 21
95.4458
 31
0.0
  0
LINE
  8
0
 62
     0
 10
200.622
 20
95.4458
 30
0.0
 11
201.754
 21
95.1258
 31
0.0
  0
LINE
  8
0
 62
     0
 10
201.754
 20
95.1258
 30
0.0
 11
202.86
 21
94.7194
 31
0.0
  0
LINE
  8
0
 62
     0
 10
202.86
 20
94.7194
 30
0.0
 11
203.929
 21
94.2262
 31
0.0
  0
LINE
  8
0
 62
     0
 10
203.929
 20
94.2262
 30
0.0
 11
204.957
 21
93.6502
 31
0.0
  0
LINE
  8
0
 62
     0
 10
204.957
 20
93.6502
 30
0.0
 11
205.937
 21
92.9954
 31
0.0
  0
LINE
  8
0
 62
     0
 10
205.937
 20
92.9954
 30
0.0
 11
206.861
 21
92.2666
 31
0.0
  0
LINE
  8
0
 62
     0
 10
206.861
 20
92.2666
 30
0.0
 11
207.727
 21
91.4672
 31
0.0
  0
LINE
  8
0
 62
     0
 10
207.727
 20
91.4672
 30
0.0
 11
208.526
 21
90.6018
 31
0.0
  0
LINE
  8
0
 62
     0
 10
208.526
 20
90.6018
 30
0.0
 11
209.255
 21
89.6772
 31
0.0
  0
LINE
  8
0
 62
     0
 10
209.255
 20
89.6772
 30
0.0
 11
209.91
 21
88.6975
 31
0.0
  0
LINE
  8
0
 62
     0
 10
209.91
 20
88.6975
 30
0.0
 11
210.484
 21
87.6695
 31
0.0
  0
LINE
  8
0
 62
     0
 10
210.484
 20
87.6695
 30
0.0
 11
210.978
 21
86.6013
 31
0.0
  0
LINE
  8
0
 62
     0
 10
210.978
 20
86.6013
 30
0.0
 11
211.386
 21
85.4964
 31
0.0
  0
LINE
  8
0
 62
     0
 10
211.386
 20
85.4964
 30
0.0
 11
211.704
 21
84.3622
 31
0.0
  0
LINE
  8
0
 62
     0
 10
211.704
 20
84.3622
 30
0.0
 11
211.934
 21
83.2072
 31
0.0
  0
LINE
  8
0
 62
     0
 10
211.934
 20
83.2072
 30
0.0
 11
212.073
 21
82.0374
 31
0.0
  0
LINE
  8
0
 62
     0
 10
212.073
 20
82.0374
 30
0.0
 11
212.12
 21
80.8605
 31
0.0
  0
LINE
  8
0
 62
     0
 10
212.12
 20
80.8605
 30
0.0
 11
212.12
 21
15.1212
 31
0.0
  0
LINE
  8
0
 62
     0
 10
212.12
 20
15.1212
 30
0.0
 11
212.073
 21
13.9444
 31
0.0
  0
LINE
  8
0
 62
     0
 10
212.073
 20
13.9444
 30
0.0
 11
211.934
 21
12.7744
 31
0.0
  0
LINE
  8
0
 62
     0
 10
211.934
 20
12.7744
 30
0.0
 11
211.704
 21
11.6196
 31
0.0
  0
LINE
  8
0
 62
     0
 10
211.704
 20
11.6196
 30
0.0
 11
211.386
 21
10.4855
 31
0.0
  0
LINE
  8
0
 62
     0
 10
211.386
 20
10.4855
 30
0.0
 11
210.978
 21
9.3817
 31
0.0
  0
LINE
  8
0
 62
     0
 10
210.978
 20
9.3817
 30
0.0
 11
210.484
 21
8.31095
 31
0.0
  0
LINE
  8
0
 62
     0
 10
210.484
 20
8.31095
 30
0.0
 11
209.91
 21
7.28292
 31
0.0
  0
LINE
  8
0
 62
     0
 10
209.91
 20
7.28292
 30
0.0
 11
209.255
 21
6.30453
 31
0.0
  0
LINE
  8
0
 62
     0
 10
209.255
 20
6.30453
 30
0.0
 11
208.526
 21
5.37849
 31
0.0
  0
LINE
  8
0
 62
     0
 10
208.526
 20
5.37849
 30
0.0
 11
207.727
 21
4.51446
 31
0.0
  0
LINE
  8
0
 62
     0
 10
207.727
 20
4.51446
 30
0.0
 11
206.861
 21
3.71521
 31
0.0
  0
LINE
  8
0
 62
     0
 10
206.861
 20
3.71521
 30
0.0
 11
205.937
 21
2.98621
 31
0.0
  0
LINE
  8
0
 62
     0
 10
205.937
 20
2.98621
 30
0.0
 11
204.957
 21
2.33164
 31
0.0
  0
LINE
  8
0
 62
     0
 10
204.957
 20
2.33164
 30
0.0
 11
203.929
 21
1.75562
 31
0.0
  0
LINE
  8
0
 62
     0
 10
203.929
 20
1.75562
 30
0.0
 11
202.86
 21
1.26366
 31
0.0
  0
LINE
  8
0
 62
     0
 10
202.86
 20
1.26366
 30
0.0
 11
201.754
 21
0.854385
 31
0.0
  0
LINE
  8
0
 62
     0
 10
201.754
 20
0.854385
 30
0.0
 11
200.622
 21
0.534681
 31
0.0
  0
LINE
  8
0
 62
     0
 10
200.622
 20
0.534681
 30
0.0
 11
199.465
 21
0.305925
 31
0.0
  0
LINE
  8
0
 62
     0
 10
199.465
 20
0.305925
 30
0.0
 11
198.297
 21
0.166743
 31
0.0
  0
LINE
  8
0
 62
     0
 10
198.297
 20
0.166743
 30
0.0
 11
197.12
 21
0.121267
 31
0.0
  0
LINE
  8
0
 62
     0
 10
197.12
 20
0.121267
 30
0.0
 11
15.095
 21
0.121267
 31
0.0
  0
LINE
  8
0
 62
     0
 10
15.095
 20
0.121267
 30
0.0
 11
13.9182
 21
0.166743
 31
0.0
  0
LINE
  8
0
 62
     0
 10
13.9182
 20
0.166743
 30
0.0
 11
12.7482
 21
0.305925
 31
0.0
  0
LINE
  8
0
 62
     0
 10
12.7482
 20
0.305925
 30
0.0
 11
11.5934
 21
0.534681
 31
0.0
  0
LINE
  8
0
 62
     0
 10
11.5934
 20
0.534681
 30
0.0
 11
10.4593
 21
0.854385
 31
0.0
  0
LINE
  8
0
 62
     0
 10
10.4593
 20
0.854385
 30
0.0
 11
9.35411
 21
1.26366
 31
0.0
  0
LINE
  8
0
 62
     0
 10
9.35411
 20
1.26366
 30
0.0
 11
8.28615
 21
1.75562
 31
0.0
  0
LINE
  8
0
 62
     0
 10
8.28615
 20
1.75562
 30
0.0
 11
7.25812
 21
2.33164
 31
0.0
  0
LINE
  8
0
 62
     0
 10
7.25812
 20
2.33164
 30
0.0
 11
6.27835
 21
2.98621
 31
0.0
  0
LINE
  8
0
 62
     0
 10
6.27835
 20
2.98621
 30
0.0
 11
5.35369
 21
3.71521
 31
0.0
  0
LINE
  8
0
 62
     0
 10
5.35369
 20
3.71521
 30
0.0
 11
4.48829
 21
4.51446
 31
0.0
  0
LINE
  8
0
 62
     0
 10
4.48829
 20
4.51446
 30
0.0
 11
3.689
 21
5.37849
 31
0.0
  0
LINE
  8
0
 62
     0
 10
3.689
 20
5.37849
 30
0.0
 11
2.96003
 21
6.30453
 31
0.0
  0
LINE
  8
0
 62
     0
 10
2.96003
 20
6.30453
 30
0.0
 11
2.30546
 21
7.28292
 31
0.0
  0
LINE
  8
0
 62
     0
 10
2.30546
 20
7.28292
 30
0.0
 11
1.72944
 21
8.31095
 31
0.0
  0
LINE
  8
0
 62
     0
 10
1.72944
 20
8.31095
 30
0.0
 11
1.2361
 21
9.3817
 31
0.0
  0
LINE
  8
0
 62
     0
 10
1.2361
 20
9.3817
 30
0.0
 11
0.829578
 21
10.4855
 31
0.0
  0
LINE
  8
0
 62
     0
 10
0.829578
 20
10.4855
 30
0.0
 11
0.509873
 21
11.6196
 31
0.0
  0
LINE
  8
0
 62
     0
 10
0.509873
 20
11.6196
 30
0.0
 11
0.279742
 21
12.7744
 31
0.0
  0
LINE
  8
0
 62
     0
 10
0.279742
 20
12.7744
 30
0.0
 11
0.141938
 21
13.9444
 31
0.0
  0
LINE
  8
0
 62
     0
 10
0.141938
 20
13.9444
 30
0.0
 11
0.0950846
 21
15.1212
 31
0.0
  0
LINE
  8
0
 62
     0
 10
0.0950846
 20
15.1212
 30
0.0
 11
0.0950846
 21
80.8605
 31
0.0
  0
LINE
  8
0
 62
     0
 10
0.0950846
 20
80.8605
 30
0.0
 11
0.141938
 21
82.0374
 31
0.0
  0
LINE
  8
0
 62
     0
 10
0.141938
 20
82.0374
 30
0.0
 11
0.279742
 21
83.2072
 31
0.0
  0
LINE
  8
0
 62
     0
 10
0.279742
 20
83.2072
 30
0.0
 11
0.509873
 21
84.3622
 31
0.0
  0
LINE
  8
0
 62
     0
 10
0.509873
 20
84.3622
 30
0.0
 11
0.829578
 21
85.4964
 31
0.0
  0
LINE
  8
0
 62
     0
 10
0.829578
 20
85.4964
 30
0.0
 11
1.2361
 21
86.6013
 31
0.0
  0
LINE
  8
0
 62
     0
 10
1.2361
 20
86.6013
 30
0.0
 11
1.72944
 21
87.6695
 31
0.0
  0
LINE
  8
0
 62
     0
 10
1.72944
 20
87.6695
 30
0.0
 11
2.30546
 21
88.6975
 31
0.0
  0
LINE
  8
0
 62
     0
 10
2.30546
 20
88.6975
 30
0.0
 11
2.96003
 21
89.6772
 31
0.0
  0
LINE
  8
0
 62
     0
 10
2.96003
 20
89.6772
 30
0.0
 11
3.689
 21
90.6018
 31
0.0
  0
LINE
  8
0
 62
     0
 10
3.689
 20
90.6018
 30
0.0
 11
4.48829
 21
91.4672
 31
0.0
  0
LINE
  8
0
 62
     0
 10
4.48829
 20
91.4672
 30
0.0
 11
5.35369
 21
92.2666
 31
0.0
  0
LINE
  8
0
 62
     0
 10
5.35369
 20
92.2666
 30
0.0
 11
6.27835
 21
92.9954
 31
0.0
  0
LINE
  8
0
 62
     0
 10
6.27835
 20
92.9954
 30
0.0
 11
7.25812
 21
93.6502
 31
0.0
  0
LINE
  8
0
 62
     0
 10
7.25812
 20
93.6502
 30
0.0
 11
8.28615
 21
94.2262
 31
0.0
  0
LINE
  8
0
 62
     0
 10
8.28615
 20
94.2262
 30
0.0
 11
9.35411
 21
94.7194
 31
0.0
  0
LINE
  8
0
 62
     0
 10
9.35411
 20
94.7194
 30
0.0
 11
10.4593
 21
95.1258
 31
0.0
  0
LINE
  8
0
 62
     0
 10
10.4593
 20
95.1258
 30
0.0
 11
11.5934
 21
95.4458
 31
0.0
  0
LINE
  8
0
 62
     0
 10
11.5934
 20
95.4458
 30
0.0
 11
12.7482
 21
95.6758
 31
0.0
  0
LINE
  8
0
 62
     0
 10
12.7482
 20
95.6758
 30
0.0
 11
13.9182
 21
95.8137
 31
0.0
  0
LINE
  8
0
 62
     0
 10
13.9182
 20
95.8137
 30
0.0
 11
15.095
 21
95.8603
 31
0.0
  0
LINE
  8
0
 62
     0
 10
15.095
 20
95.8603
 30
0.0
 11
197.12
 21
95.8603
 31
0.0
  0
ENDSEC
  0
EOF
